ISO-10303-21;
HEADER;
/* Generated by software containing ST-Developer
 * from STEP Tools, Inc. (www.steptools.com) 
 */

FILE_DESCRIPTION(
/* description */ (''),
/* implementation_level */ '2;1');

FILE_NAME(
/* name */ 'OpenTholoMetriV1.step',
/* time_stamp */ '2026-01-20T13:24:05+01:00',
/* author */ (''),
/* organization */ (''),
/* preprocessor_version */ 'ST-DEVELOPER v20.1',
/* originating_system */ 'Autodesk Translation Framework v14.21.0.0',
/* authorisation */ '');

FILE_SCHEMA (('AUTOMOTIVE_DESIGN { 1 0 10303 214 3 1 1 }'));
ENDSEC;

DATA;
#10=MECHANICAL_DESIGN_GEOMETRIC_PRESENTATION_REPRESENTATION('',(#13),#1824);
#11=SHAPE_REPRESENTATION_RELATIONSHIP('SRR','None',#1831,#12);
#12=ADVANCED_BREP_SHAPE_REPRESENTATION('',(#14),#1823);
#13=STYLED_ITEM('',(#1840),#14);
#14=MANIFOLD_SOLID_BREP('Body1',#992);
#15=ELLIPSE('',#1035,1.41421356237309,1.);
#16=ELLIPSE('',#1036,1.41421356237309,1.);
#17=ELLIPSE('',#1038,1.4142135623731,1.);
#18=ELLIPSE('',#1040,1.4142135623731,1.);
#19=TOROIDAL_SURFACE('',#1025,24.,1.);
#20=TOROIDAL_SURFACE('',#1044,21.,4.);
#21=CYLINDRICAL_SURFACE('',#1018,1.);
#22=CYLINDRICAL_SURFACE('',#1021,1.);
#23=CYLINDRICAL_SURFACE('',#1024,1.);
#24=CYLINDRICAL_SURFACE('',#1028,1.);
#25=CYLINDRICAL_SURFACE('',#1029,25.);
#26=CYLINDRICAL_SURFACE('',#1034,1.);
#27=CYLINDRICAL_SURFACE('',#1037,1.);
#28=CYLINDRICAL_SURFACE('',#1039,1.);
#29=CYLINDRICAL_SURFACE('',#1041,1.);
#30=CYLINDRICAL_SURFACE('',#1059,21.25);
#31=CYLINDRICAL_SURFACE('',#1062,21.25);
#32=CYLINDRICAL_SURFACE('',#1065,14.25);
#33=CYLINDRICAL_SURFACE('',#1077,15.25);
#34=CYLINDRICAL_SURFACE('',#1078,15.25);
#35=CYLINDRICAL_SURFACE('',#1083,11.25);
#36=CYLINDRICAL_SURFACE('',#1085,3.15);
#37=B_SPLINE_CURVE_WITH_KNOTS('',3,(#1459,#1460,#1461,#1462,#1463,#1464),
 .UNSPECIFIED.,.F.,.F.,(4,1,1,4),(-0.402745069419706,-0.230140039668404,
-0.115070019834202,-1.13876851449145E-15),.UNSPECIFIED.);
#38=B_SPLINE_CURVE_WITH_KNOTS('',3,(#1468,#1469,#1470,#1471,#1472,#1473),
 .UNSPECIFIED.,.F.,.F.,(4,1,1,4),(1.13876851449145E-15,0.115070019834202,
0.230140039668404,0.402745069419706),.UNSPECIFIED.);
#39=B_SPLINE_CURVE_WITH_KNOTS('',3,(#1507,#1508,#1509,#1510,#1511,#1512),
 .UNSPECIFIED.,.F.,.F.,(4,1,1,4),(6.60001909766491E-16,0.172606130797995,
0.287676884663325,0.402747638528655),.UNSPECIFIED.);
#40=B_SPLINE_CURVE_WITH_KNOTS('',3,(#1516,#1517,#1518,#1519,#1520,#1521),
 .UNSPECIFIED.,.F.,.F.,(4,1,1,4),(-0.402747638528655,-0.287676884663325,
-0.172606130797995,-6.60001909766491E-16),.UNSPECIFIED.);
#41=B_SPLINE_CURVE_WITH_KNOTS('',3,(#1567,#1568,#1569,#1570,#1571,#1572,
#1573),.UNSPECIFIED.,.F.,.F.,(4,1,1,1,4),(-0.610427354687923,-0.348815631250242,
-0.174407815625121,-0.0872039078125604,-1.46343604901718E-18),
 .UNSPECIFIED.);
#42=B_SPLINE_CURVE_WITH_KNOTS('',3,(#1574,#1575,#1576,#1577,#1578,#1579,
#1580),.UNSPECIFIED.,.F.,.F.,(4,1,1,1,4),(1.46343604901718E-18,0.0872039078125604,
0.174407815625121,0.348815631250242,0.610427354687923),.UNSPECIFIED.);
#43=B_SPLINE_CURVE_WITH_KNOTS('',3,(#1625,#1626,#1627,#1628,#1629,#1630,
#1631),.UNSPECIFIED.,.F.,.F.,(4,1,1,1,4),(-0.61045875700019,-0.501448264678727,
-0.43604196928585,-0.26162518157151,-5.7448704747388E-16),.UNSPECIFIED.);
#44=B_SPLINE_CURVE_WITH_KNOTS('',3,(#1632,#1633,#1634,#1635,#1636,#1637,
#1638),.UNSPECIFIED.,.F.,.F.,(4,1,1,1,4),(5.7448704747388E-16,0.26162518157151,
0.43604196928585,0.501448264678727,0.61045875700019),.UNSPECIFIED.);
#45=B_SPLINE_SURFACE_WITH_KNOTS('',3,3,((#1427,#1428,#1429,#1430,#1431,
#1432),(#1433,#1434,#1435,#1436,#1437,#1438),(#1439,#1440,#1441,#1442,#1443,
#1444),(#1445,#1446,#1447,#1448,#1449,#1450),(#1451,#1452,#1453,#1454,#1455,
#1456)),.UNSPECIFIED.,.F.,.F.,.F.,(4,1,4),(4,1,1,4),(0.,0.571428571428571,
1.),(1.13876851449145E-15,0.115070019834202,0.230140039668404,0.402745069419706),
 .UNSPECIFIED.);
#46=B_SPLINE_SURFACE_WITH_KNOTS('',3,3,((#1475,#1476,#1477,#1478,#1479,
#1480),(#1481,#1482,#1483,#1484,#1485,#1486),(#1487,#1488,#1489,#1490,#1491,
#1492),(#1493,#1494,#1495,#1496,#1497,#1498),(#1499,#1500,#1501,#1502,#1503,
#1504)),.UNSPECIFIED.,.F.,.F.,.F.,(4,1,4),(4,1,1,4),(0.,0.571428571428571,
1.),(6.60001909766491E-16,0.172606130797995,0.287676884663325,0.402747638528655),
 .UNSPECIFIED.);
#47=B_SPLINE_SURFACE_WITH_KNOTS('',3,3,((#1529,#1530,#1531,#1532,#1533,
#1534,#1535),(#1536,#1537,#1538,#1539,#1540,#1541,#1542),(#1543,#1544,#1545,
#1546,#1547,#1548,#1549),(#1550,#1551,#1552,#1553,#1554,#1555,#1556),(#1557,
#1558,#1559,#1560,#1561,#1562,#1563)),.UNSPECIFIED.,.F.,.F.,.F.,(4,1,4),
(4,1,1,1,4),(0.,0.571428571428571,1.),(1.46343604901718E-18,0.0872039078125604,
0.174407815625121,0.348815631250242,0.610427354687923),.UNSPECIFIED.);
#48=B_SPLINE_SURFACE_WITH_KNOTS('',3,3,((#1587,#1588,#1589,#1590,#1591,
#1592,#1593),(#1594,#1595,#1596,#1597,#1598,#1599,#1600),(#1601,#1602,#1603,
#1604,#1605,#1606,#1607),(#1608,#1609,#1610,#1611,#1612,#1613,#1614),(#1615,
#1616,#1617,#1618,#1619,#1620,#1621)),.UNSPECIFIED.,.F.,.F.,.F.,(4,1,4),
(4,1,1,1,4),(0.,0.571428571428571,1.),(5.7448704747388E-16,0.26162518157151,
0.43604196928585,0.501448264678727,0.61045875700019),.UNSPECIFIED.);
#49=CIRCLE('',#1011,15.25);
#50=CIRCLE('',#1014,0.999999999999999);
#51=CIRCLE('',#1015,1.);
#52=CIRCLE('',#1016,1.);
#53=CIRCLE('',#1017,1.00000000000001);
#54=CIRCLE('',#1019,1.);
#55=CIRCLE('',#1020,1.);
#56=CIRCLE('',#1022,1.);
#57=CIRCLE('',#1023,1.);
#58=CIRCLE('',#1026,25.);
#59=CIRCLE('',#1027,24.);
#60=CIRCLE('',#1030,25.);
#61=CIRCLE('',#1031,25.);
#62=CIRCLE('',#1045,21.);
#63=CIRCLE('',#1050,14.25);
#64=CIRCLE('',#1051,14.25);
#65=CIRCLE('',#1056,14.25);
#66=CIRCLE('',#1060,21.25);
#67=CIRCLE('',#1061,21.25);
#68=CIRCLE('',#1063,21.25);
#69=CIRCLE('',#1064,21.25);
#70=CIRCLE('',#1066,14.25);
#71=CIRCLE('',#1067,14.25);
#72=CIRCLE('',#1068,14.25);
#73=CIRCLE('',#1070,15.25);
#74=CIRCLE('',#1072,15.25);
#75=CIRCLE('',#1073,15.25);
#76=CIRCLE('',#1074,3.15);
#77=CIRCLE('',#1076,15.25);
#78=CIRCLE('',#1079,15.25);
#79=CIRCLE('',#1082,11.25);
#80=CIRCLE('',#1084,11.25);
#81=CIRCLE('',#1086,3.15);
#82=FACE_BOUND('',#146,.T.);
#83=FACE_BOUND('',#163,.T.);
#84=FACE_BOUND('',#187,.T.);
#85=FACE_BOUND('',#193,.T.);
#86=FACE_BOUND('',#198,.T.);
#87=FACE_BOUND('',#199,.T.);
#88=FACE_BOUND('',#205,.T.);
#89=FACE_OUTER_BOUND('',#144,.T.);
#90=FACE_OUTER_BOUND('',#145,.T.);
#91=FACE_OUTER_BOUND('',#147,.T.);
#92=FACE_OUTER_BOUND('',#148,.T.);
#93=FACE_OUTER_BOUND('',#149,.T.);
#94=FACE_OUTER_BOUND('',#150,.T.);
#95=FACE_OUTER_BOUND('',#151,.T.);
#96=FACE_OUTER_BOUND('',#152,.T.);
#97=FACE_OUTER_BOUND('',#153,.T.);
#98=FACE_OUTER_BOUND('',#154,.T.);
#99=FACE_OUTER_BOUND('',#155,.T.);
#100=FACE_OUTER_BOUND('',#156,.T.);
#101=FACE_OUTER_BOUND('',#157,.T.);
#102=FACE_OUTER_BOUND('',#158,.T.);
#103=FACE_OUTER_BOUND('',#159,.T.);
#104=FACE_OUTER_BOUND('',#160,.T.);
#105=FACE_OUTER_BOUND('',#161,.T.);
#106=FACE_OUTER_BOUND('',#162,.T.);
#107=FACE_OUTER_BOUND('',#164,.T.);
#108=FACE_OUTER_BOUND('',#165,.T.);
#109=FACE_OUTER_BOUND('',#166,.T.);
#110=FACE_OUTER_BOUND('',#167,.T.);
#111=FACE_OUTER_BOUND('',#168,.T.);
#112=FACE_OUTER_BOUND('',#169,.T.);
#113=FACE_OUTER_BOUND('',#170,.T.);
#114=FACE_OUTER_BOUND('',#171,.T.);
#115=FACE_OUTER_BOUND('',#172,.T.);
#116=FACE_OUTER_BOUND('',#173,.T.);
#117=FACE_OUTER_BOUND('',#174,.T.);
#118=FACE_OUTER_BOUND('',#175,.T.);
#119=FACE_OUTER_BOUND('',#176,.T.);
#120=FACE_OUTER_BOUND('',#177,.T.);
#121=FACE_OUTER_BOUND('',#178,.T.);
#122=FACE_OUTER_BOUND('',#179,.T.);
#123=FACE_OUTER_BOUND('',#180,.T.);
#124=FACE_OUTER_BOUND('',#181,.T.);
#125=FACE_OUTER_BOUND('',#182,.T.);
#126=FACE_OUTER_BOUND('',#183,.T.);
#127=FACE_OUTER_BOUND('',#184,.T.);
#128=FACE_OUTER_BOUND('',#185,.T.);
#129=FACE_OUTER_BOUND('',#186,.T.);
#130=FACE_OUTER_BOUND('',#188,.T.);
#131=FACE_OUTER_BOUND('',#189,.T.);
#132=FACE_OUTER_BOUND('',#190,.T.);
#133=FACE_OUTER_BOUND('',#191,.T.);
#134=FACE_OUTER_BOUND('',#192,.T.);
#135=FACE_OUTER_BOUND('',#194,.T.);
#136=FACE_OUTER_BOUND('',#195,.T.);
#137=FACE_OUTER_BOUND('',#196,.T.);
#138=FACE_OUTER_BOUND('',#197,.T.);
#139=FACE_OUTER_BOUND('',#200,.T.);
#140=FACE_OUTER_BOUND('',#201,.T.);
#141=FACE_OUTER_BOUND('',#202,.T.);
#142=FACE_OUTER_BOUND('',#203,.T.);
#143=FACE_OUTER_BOUND('',#204,.T.);
#144=EDGE_LOOP('',(#624,#625,#626,#627,#628,#629));
#145=EDGE_LOOP('',(#630,#631,#632,#633));
#146=EDGE_LOOP('',(#634,#635,#636,#637));
#147=EDGE_LOOP('',(#638,#639,#640,#641));
#148=EDGE_LOOP('',(#642,#643,#644,#645,#646));
#149=EDGE_LOOP('',(#647,#648,#649,#650,#651,#652));
#150=EDGE_LOOP('',(#653,#654,#655,#656));
#151=EDGE_LOOP('',(#657,#658,#659,#660));
#152=EDGE_LOOP('',(#661,#662,#663,#664));
#153=EDGE_LOOP('',(#665,#666,#667,#668));
#154=EDGE_LOOP('',(#669,#670,#671,#672));
#155=EDGE_LOOP('',(#673,#674,#675,#676));
#156=EDGE_LOOP('',(#677,#678,#679,#680));
#157=EDGE_LOOP('',(#681,#682,#683,#684));
#158=EDGE_LOOP('',(#685,#686,#687,#688));
#159=EDGE_LOOP('',(#689,#690,#691,#692));
#160=EDGE_LOOP('',(#693,#694,#695,#696));
#161=EDGE_LOOP('',(#697,#698,#699,#700,#701,#702));
#162=EDGE_LOOP('',(#703,#704,#705,#706,#707,#708));
#163=EDGE_LOOP('',(#709,#710,#711,#712));
#164=EDGE_LOOP('',(#713,#714));
#165=EDGE_LOOP('',(#715,#716,#717,#718));
#166=EDGE_LOOP('',(#719,#720,#721,#722));
#167=EDGE_LOOP('',(#723,#724,#725,#726));
#168=EDGE_LOOP('',(#727,#728,#729,#730));
#169=EDGE_LOOP('',(#731,#732,#733,#734));
#170=EDGE_LOOP('',(#735,#736,#737,#738));
#171=EDGE_LOOP('',(#739,#740,#741,#742));
#172=EDGE_LOOP('',(#743,#744,#745,#746));
#173=EDGE_LOOP('',(#747,#748,#749,#750));
#174=EDGE_LOOP('',(#751,#752,#753,#754,#755,#756));
#175=EDGE_LOOP('',(#757,#758,#759,#760,#761));
#176=EDGE_LOOP('',(#762,#763,#764,#765,#766,#767));
#177=EDGE_LOOP('',(#768,#769,#770,#771,#772,#773,#774,#775));
#178=EDGE_LOOP('',(#776,#777,#778,#779,#780,#781,#782,#783));
#179=EDGE_LOOP('',(#784,#785,#786,#787));
#180=EDGE_LOOP('',(#788,#789,#790,#791,#792,#793));
#181=EDGE_LOOP('',(#794,#795,#796,#797,#798,#799));
#182=EDGE_LOOP('',(#800,#801,#802,#803));
#183=EDGE_LOOP('',(#804,#805,#806,#807));
#184=EDGE_LOOP('',(#808,#809,#810,#811,#812,#813,#814,#815,#816,#817,#818,
#819));
#185=EDGE_LOOP('',(#820,#821,#822,#823));
#186=EDGE_LOOP('',(#824,#825,#826,#827,#828,#829,#830,#831,#832,#833,#834,
#835,#836,#837,#838,#839));
#187=EDGE_LOOP('',(#840));
#188=EDGE_LOOP('',(#841,#842,#843,#844));
#189=EDGE_LOOP('',(#845,#846,#847,#848));
#190=EDGE_LOOP('',(#849,#850,#851,#852,#853,#854,#855,#856));
#191=EDGE_LOOP('',(#857,#858,#859,#860));
#192=EDGE_LOOP('',(#861));
#193=EDGE_LOOP('',(#862));
#194=EDGE_LOOP('',(#863,#864,#865,#866));
#195=EDGE_LOOP('',(#867,#868,#869,#870));
#196=EDGE_LOOP('',(#871,#872,#873,#874));
#197=EDGE_LOOP('',(#875,#876));
#198=EDGE_LOOP('',(#877));
#199=EDGE_LOOP('',(#878));
#200=EDGE_LOOP('',(#879,#880,#881,#882));
#201=EDGE_LOOP('',(#883,#884,#885,#886));
#202=EDGE_LOOP('',(#887,#888,#889,#890));
#203=EDGE_LOOP('',(#891,#892,#893,#894,#895));
#204=EDGE_LOOP('',(#896,#897));
#205=EDGE_LOOP('',(#898,#899,#900,#901,#902,#903));
#206=LINE('',#1371,#301);
#207=LINE('',#1373,#302);
#208=LINE('',#1375,#303);
#209=LINE('',#1377,#304);
#210=LINE('',#1379,#305);
#211=LINE('',#1380,#306);
#212=LINE('',#1383,#307);
#213=LINE('',#1385,#308);
#214=LINE('',#1386,#309);
#215=LINE('',#1389,#310);
#216=LINE('',#1391,#311);
#217=LINE('',#1393,#312);
#218=LINE('',#1394,#313);
#219=LINE('',#1397,#314);
#220=LINE('',#1398,#315);
#221=LINE('',#1401,#316);
#222=LINE('',#1403,#317);
#223=LINE('',#1404,#318);
#224=LINE('',#1410,#319);
#225=LINE('',#1411,#320);
#226=LINE('',#1413,#321);
#227=LINE('',#1415,#322);
#228=LINE('',#1416,#323);
#229=LINE('',#1419,#324);
#230=LINE('',#1421,#325);
#231=LINE('',#1422,#326);
#232=LINE('',#1425,#327);
#233=LINE('',#1426,#328);
#234=LINE('',#1527,#329);
#235=LINE('',#1528,#330);
#236=LINE('',#1585,#331);
#237=LINE('',#1586,#332);
#238=LINE('',#1640,#333);
#239=LINE('',#1641,#334);
#240=LINE('',#1646,#335);
#241=LINE('',#1647,#336);
#242=LINE('',#1654,#337);
#243=LINE('',#1656,#338);
#244=LINE('',#1658,#339);
#245=LINE('',#1659,#340);
#246=LINE('',#1664,#341);
#247=LINE('',#1669,#342);
#248=LINE('',#1673,#343);
#249=LINE('',#1676,#344);
#250=LINE('',#1678,#345);
#251=LINE('',#1679,#346);
#252=LINE('',#1681,#347);
#253=LINE('',#1686,#348);
#254=LINE('',#1687,#349);
#255=LINE('',#1690,#350);
#256=LINE('',#1691,#351);
#257=LINE('',#1695,#352);
#258=LINE('',#1697,#353);
#259=LINE('',#1699,#354);
#260=LINE('',#1701,#355);
#261=LINE('',#1703,#356);
#262=LINE('',#1704,#357);
#263=LINE('',#1709,#358);
#264=LINE('',#1711,#359);
#265=LINE('',#1715,#360);
#266=LINE('',#1717,#361);
#267=LINE('',#1719,#362);
#268=LINE('',#1720,#363);
#269=LINE('',#1723,#364);
#270=LINE('',#1725,#365);
#271=LINE('',#1727,#366);
#272=LINE('',#1729,#367);
#273=LINE('',#1731,#368);
#274=LINE('',#1732,#369);
#275=LINE('',#1736,#370);
#276=LINE('',#1738,#371);
#277=LINE('',#1740,#372);
#278=LINE('',#1742,#373);
#279=LINE('',#1744,#374);
#280=LINE('',#1746,#375);
#281=LINE('',#1748,#376);
#282=LINE('',#1749,#377);
#283=LINE('',#1754,#378);
#284=LINE('',#1755,#379);
#285=LINE('',#1758,#380);
#286=LINE('',#1760,#381);
#287=LINE('',#1762,#382);
#288=LINE('',#1764,#383);
#289=LINE('',#1765,#384);
#290=LINE('',#1768,#385);
#291=LINE('',#1770,#386);
#292=LINE('',#1771,#387);
#293=LINE('',#1780,#388);
#294=LINE('',#1789,#389);
#295=LINE('',#1790,#390);
#296=LINE('',#1805,#391);
#297=LINE('',#1809,#392);
#298=LINE('',#1812,#393);
#299=LINE('',#1816,#394);
#300=LINE('',#1818,#395);
#301=VECTOR('',#1098,10.);
#302=VECTOR('',#1099,10.);
#303=VECTOR('',#1100,10.);
#304=VECTOR('',#1101,10.);
#305=VECTOR('',#1102,10.);
#306=VECTOR('',#1103,10.);
#307=VECTOR('',#1106,10.);
#308=VECTOR('',#1107,10.);
#309=VECTOR('',#1108,10.);
#310=VECTOR('',#1109,10.);
#311=VECTOR('',#1110,10.);
#312=VECTOR('',#1111,10.);
#313=VECTOR('',#1112,10.);
#314=VECTOR('',#1115,10.);
#315=VECTOR('',#1116,10.);
#316=VECTOR('',#1119,10.);
#317=VECTOR('',#1120,10.);
#318=VECTOR('',#1121,10.);
#319=VECTOR('',#1126,10.);
#320=VECTOR('',#1127,10.);
#321=VECTOR('',#1128,10.);
#322=VECTOR('',#1129,10.);
#323=VECTOR('',#1130,10.);
#324=VECTOR('',#1133,10.);
#325=VECTOR('',#1134,10.);
#326=VECTOR('',#1135,10.);
#327=VECTOR('',#1138,10.);
#328=VECTOR('',#1139,10.);
#329=VECTOR('',#1152,10.);
#330=VECTOR('',#1153,10.);
#331=VECTOR('',#1160,10.);
#332=VECTOR('',#1161,10.);
#333=VECTOR('',#1166,10.);
#334=VECTOR('',#1167,10.);
#335=VECTOR('',#1176,10.);
#336=VECTOR('',#1177,10.);
#337=VECTOR('',#1186,10.);
#338=VECTOR('',#1187,10.);
#339=VECTOR('',#1188,10.);
#340=VECTOR('',#1189,10.);
#341=VECTOR('',#1194,10.);
#342=VECTOR('',#1201,10.);
#343=VECTOR('',#1206,10.);
#344=VECTOR('',#1211,10.);
#345=VECTOR('',#1214,10.);
#346=VECTOR('',#1215,10.);
#347=VECTOR('',#1218,10.);
#348=VECTOR('',#1225,10.);
#349=VECTOR('',#1226,10.);
#350=VECTOR('',#1229,10.);
#351=VECTOR('',#1230,10.);
#352=VECTOR('',#1233,10.);
#353=VECTOR('',#1234,10.);
#354=VECTOR('',#1235,10.);
#355=VECTOR('',#1236,10.);
#356=VECTOR('',#1237,10.);
#357=VECTOR('',#1238,10.);
#358=VECTOR('',#1243,10.);
#359=VECTOR('',#1244,10.);
#360=VECTOR('',#1249,10.);
#361=VECTOR('',#1250,10.);
#362=VECTOR('',#1251,10.);
#363=VECTOR('',#1252,10.);
#364=VECTOR('',#1255,10.);
#365=VECTOR('',#1256,10.);
#366=VECTOR('',#1257,10.);
#367=VECTOR('',#1258,10.);
#368=VECTOR('',#1259,10.);
#369=VECTOR('',#1260,10.);
#370=VECTOR('',#1263,10.);
#371=VECTOR('',#1264,10.);
#372=VECTOR('',#1265,10.);
#373=VECTOR('',#1266,10.);
#374=VECTOR('',#1267,10.);
#375=VECTOR('',#1268,10.);
#376=VECTOR('',#1269,10.);
#377=VECTOR('',#1270,10.);
#378=VECTOR('',#1275,10.);
#379=VECTOR('',#1276,10.);
#380=VECTOR('',#1279,10.);
#381=VECTOR('',#1280,10.);
#382=VECTOR('',#1281,10.);
#383=VECTOR('',#1282,10.);
#384=VECTOR('',#1283,10.);
#385=VECTOR('',#1286,10.);
#386=VECTOR('',#1287,10.);
#387=VECTOR('',#1288,10.);
#388=VECTOR('',#1303,14.25);
#389=VECTOR('',#1318,10.);
#390=VECTOR('',#1319,10.);
#391=VECTOR('',#1342,11.25);
#392=VECTOR('',#1347,3.15);
#393=VECTOR('',#1352,10.);
#394=VECTOR('',#1359,10.);
#395=VECTOR('',#1362,10.);
#396=VERTEX_POINT('',#1369);
#397=VERTEX_POINT('',#1370);
#398=VERTEX_POINT('',#1372);
#399=VERTEX_POINT('',#1374);
#400=VERTEX_POINT('',#1376);
#401=VERTEX_POINT('',#1378);
#402=VERTEX_POINT('',#1382);
#403=VERTEX_POINT('',#1384);
#404=VERTEX_POINT('',#1387);
#405=VERTEX_POINT('',#1388);
#406=VERTEX_POINT('',#1390);
#407=VERTEX_POINT('',#1392);
#408=VERTEX_POINT('',#1396);
#409=VERTEX_POINT('',#1400);
#410=VERTEX_POINT('',#1402);
#411=VERTEX_POINT('',#1406);
#412=VERTEX_POINT('',#1407);
#413=VERTEX_POINT('',#1409);
#414=VERTEX_POINT('',#1412);
#415=VERTEX_POINT('',#1414);
#416=VERTEX_POINT('',#1418);
#417=VERTEX_POINT('',#1420);
#418=VERTEX_POINT('',#1424);
#419=VERTEX_POINT('',#1457);
#420=VERTEX_POINT('',#1458);
#421=VERTEX_POINT('',#1465);
#422=VERTEX_POINT('',#1467);
#423=VERTEX_POINT('',#1505);
#424=VERTEX_POINT('',#1506);
#425=VERTEX_POINT('',#1513);
#426=VERTEX_POINT('',#1515);
#427=VERTEX_POINT('',#1524);
#428=VERTEX_POINT('',#1525);
#429=VERTEX_POINT('',#1564);
#430=VERTEX_POINT('',#1565);
#431=VERTEX_POINT('',#1582);
#432=VERTEX_POINT('',#1583);
#433=VERTEX_POINT('',#1622);
#434=VERTEX_POINT('',#1623);
#435=VERTEX_POINT('',#1652);
#436=VERTEX_POINT('',#1653);
#437=VERTEX_POINT('',#1655);
#438=VERTEX_POINT('',#1657);
#439=VERTEX_POINT('',#1662);
#440=VERTEX_POINT('',#1663);
#441=VERTEX_POINT('',#1668);
#442=VERTEX_POINT('',#1672);
#443=VERTEX_POINT('',#1685);
#444=VERTEX_POINT('',#1689);
#445=VERTEX_POINT('',#1693);
#446=VERTEX_POINT('',#1694);
#447=VERTEX_POINT('',#1696);
#448=VERTEX_POINT('',#1698);
#449=VERTEX_POINT('',#1700);
#450=VERTEX_POINT('',#1702);
#451=VERTEX_POINT('',#1706);
#452=VERTEX_POINT('',#1707);
#453=VERTEX_POINT('',#1710);
#454=VERTEX_POINT('',#1714);
#455=VERTEX_POINT('',#1716);
#456=VERTEX_POINT('',#1718);
#457=VERTEX_POINT('',#1722);
#458=VERTEX_POINT('',#1724);
#459=VERTEX_POINT('',#1726);
#460=VERTEX_POINT('',#1728);
#461=VERTEX_POINT('',#1730);
#462=VERTEX_POINT('',#1734);
#463=VERTEX_POINT('',#1735);
#464=VERTEX_POINT('',#1737);
#465=VERTEX_POINT('',#1739);
#466=VERTEX_POINT('',#1741);
#467=VERTEX_POINT('',#1743);
#468=VERTEX_POINT('',#1745);
#469=VERTEX_POINT('',#1747);
#470=VERTEX_POINT('',#1751);
#471=VERTEX_POINT('',#1753);
#472=VERTEX_POINT('',#1757);
#473=VERTEX_POINT('',#1759);
#474=VERTEX_POINT('',#1761);
#475=VERTEX_POINT('',#1763);
#476=VERTEX_POINT('',#1767);
#477=VERTEX_POINT('',#1769);
#478=VERTEX_POINT('',#1779);
#479=VERTEX_POINT('',#1788);
#480=VERTEX_POINT('',#1792);
#481=VERTEX_POINT('',#1801);
#482=VERTEX_POINT('',#1804);
#483=VERTEX_POINT('',#1808);
#484=EDGE_CURVE('',#396,#397,#206,.T.);
#485=EDGE_CURVE('',#398,#396,#207,.T.);
#486=EDGE_CURVE('',#399,#398,#208,.T.);
#487=EDGE_CURVE('',#400,#399,#209,.T.);
#488=EDGE_CURVE('',#401,#400,#210,.T.);
#489=EDGE_CURVE('',#397,#401,#211,.T.);
#490=EDGE_CURVE('',#402,#399,#212,.T.);
#491=EDGE_CURVE('',#403,#402,#213,.T.);
#492=EDGE_CURVE('',#403,#400,#214,.T.);
#493=EDGE_CURVE('',#404,#405,#215,.T.);
#494=EDGE_CURVE('',#405,#406,#216,.T.);
#495=EDGE_CURVE('',#406,#407,#217,.T.);
#496=EDGE_CURVE('',#407,#404,#218,.T.);
#497=EDGE_CURVE('',#408,#398,#219,.T.);
#498=EDGE_CURVE('',#402,#408,#220,.T.);
#499=EDGE_CURVE('',#409,#396,#221,.T.);
#500=EDGE_CURVE('',#410,#409,#222,.T.);
#501=EDGE_CURVE('',#408,#410,#223,.T.);
#502=EDGE_CURVE('',#411,#412,#49,.T.);
#503=EDGE_CURVE('',#413,#412,#224,.T.);
#504=EDGE_CURVE('',#409,#413,#225,.T.);
#505=EDGE_CURVE('',#409,#414,#226,.T.);
#506=EDGE_CURVE('',#415,#414,#227,.T.);
#507=EDGE_CURVE('',#411,#415,#228,.T.);
#508=EDGE_CURVE('',#416,#415,#229,.T.);
#509=EDGE_CURVE('',#417,#416,#230,.T.);
#510=EDGE_CURVE('',#417,#411,#231,.T.);
#511=EDGE_CURVE('',#418,#414,#232,.T.);
#512=EDGE_CURVE('',#416,#418,#233,.T.);
#513=EDGE_CURVE('',#419,#420,#37,.T.);
#514=EDGE_CURVE('',#421,#420,#50,.T.);
#515=EDGE_CURVE('',#422,#421,#38,.F.);
#516=EDGE_CURVE('',#419,#422,#51,.T.);
#517=EDGE_CURVE('',#423,#424,#39,.F.);
#518=EDGE_CURVE('',#425,#423,#52,.T.);
#519=EDGE_CURVE('',#425,#426,#40,.T.);
#520=EDGE_CURVE('',#424,#426,#53,.T.);
#521=EDGE_CURVE('',#427,#428,#54,.T.);
#522=EDGE_CURVE('',#428,#425,#234,.T.);
#523=EDGE_CURVE('',#423,#427,#235,.T.);
#524=EDGE_CURVE('',#429,#430,#55,.T.);
#525=EDGE_CURVE('',#430,#428,#41,.T.);
#526=EDGE_CURVE('',#427,#429,#42,.T.);
#527=EDGE_CURVE('',#431,#432,#56,.T.);
#528=EDGE_CURVE('',#432,#430,#236,.T.);
#529=EDGE_CURVE('',#429,#431,#237,.T.);
#530=EDGE_CURVE('',#433,#434,#57,.T.);
#531=EDGE_CURVE('',#434,#432,#43,.T.);
#532=EDGE_CURVE('',#431,#433,#44,.T.);
#533=EDGE_CURVE('',#420,#434,#238,.T.);
#534=EDGE_CURVE('',#433,#421,#239,.T.);
#535=EDGE_CURVE('',#426,#419,#58,.T.);
#536=EDGE_CURVE('',#422,#424,#59,.T.);
#537=EDGE_CURVE('',#421,#423,#240,.T.);
#538=EDGE_CURVE('',#424,#422,#241,.T.);
#539=EDGE_CURVE('',#419,#426,#60,.T.);
#540=EDGE_CURVE('',#434,#428,#61,.T.);
#541=EDGE_CURVE('',#435,#436,#242,.T.);
#542=EDGE_CURVE('',#437,#435,#243,.T.);
#543=EDGE_CURVE('',#438,#437,#244,.T.);
#544=EDGE_CURVE('',#436,#438,#245,.T.);
#545=EDGE_CURVE('',#439,#440,#246,.T.);
#546=EDGE_CURVE('',#440,#435,#15,.T.);
#547=EDGE_CURVE('',#436,#439,#16,.T.);
#548=EDGE_CURVE('',#440,#441,#247,.T.);
#549=EDGE_CURVE('',#441,#437,#17,.T.);
#550=EDGE_CURVE('',#442,#439,#248,.T.);
#551=EDGE_CURVE('',#438,#442,#18,.T.);
#552=EDGE_CURVE('',#441,#442,#249,.T.);
#553=EDGE_CURVE('',#440,#404,#250,.T.);
#554=EDGE_CURVE('',#407,#441,#251,.T.);
#555=EDGE_CURVE('',#405,#439,#252,.T.);
#556=EDGE_CURVE('',#430,#432,#62,.T.);
#557=EDGE_CURVE('',#443,#413,#253,.T.);
#558=EDGE_CURVE('',#410,#443,#254,.T.);
#559=EDGE_CURVE('',#412,#444,#255,.T.);
#560=EDGE_CURVE('',#443,#444,#256,.T.);
#561=EDGE_CURVE('',#445,#446,#257,.T.);
#562=EDGE_CURVE('',#445,#447,#258,.T.);
#563=EDGE_CURVE('',#447,#448,#259,.T.);
#564=EDGE_CURVE('',#449,#448,#260,.T.);
#565=EDGE_CURVE('',#450,#449,#261,.T.);
#566=EDGE_CURVE('',#446,#450,#262,.T.);
#567=EDGE_CURVE('',#451,#452,#63,.T.);
#568=EDGE_CURVE('',#448,#451,#263,.T.);
#569=EDGE_CURVE('',#453,#447,#264,.T.);
#570=EDGE_CURVE('',#452,#453,#64,.T.);
#571=EDGE_CURVE('',#454,#451,#265,.T.);
#572=EDGE_CURVE('',#455,#454,#266,.T.);
#573=EDGE_CURVE('',#456,#455,#267,.T.);
#574=EDGE_CURVE('',#449,#456,#268,.T.);
#575=EDGE_CURVE('',#457,#445,#269,.T.);
#576=EDGE_CURVE('',#458,#457,#270,.T.);
#577=EDGE_CURVE('',#459,#458,#271,.T.);
#578=EDGE_CURVE('',#460,#459,#272,.T.);
#579=EDGE_CURVE('',#461,#460,#273,.T.);
#580=EDGE_CURVE('',#453,#461,#274,.T.);
#581=EDGE_CURVE('',#462,#463,#275,.T.);
#582=EDGE_CURVE('',#462,#464,#276,.T.);
#583=EDGE_CURVE('',#464,#465,#277,.T.);
#584=EDGE_CURVE('',#466,#465,#278,.T.);
#585=EDGE_CURVE('',#467,#466,#279,.T.);
#586=EDGE_CURVE('',#468,#467,#280,.T.);
#587=EDGE_CURVE('',#469,#468,#281,.T.);
#588=EDGE_CURVE('',#463,#469,#282,.T.);
#589=EDGE_CURVE('',#465,#470,#65,.T.);
#590=EDGE_CURVE('',#471,#464,#283,.T.);
#591=EDGE_CURVE('',#470,#471,#284,.T.);
#592=EDGE_CURVE('',#470,#472,#285,.T.);
#593=EDGE_CURVE('',#473,#471,#286,.T.);
#594=EDGE_CURVE('',#474,#473,#287,.T.);
#595=EDGE_CURVE('',#475,#474,#288,.T.);
#596=EDGE_CURVE('',#472,#475,#289,.T.);
#597=EDGE_CURVE('',#476,#462,#290,.T.);
#598=EDGE_CURVE('',#477,#476,#291,.T.);
#599=EDGE_CURVE('',#473,#477,#292,.T.);
#600=EDGE_CURVE('',#457,#463,#66,.T.);
#601=EDGE_CURVE('',#458,#469,#67,.T.);
#602=EDGE_CURVE('',#477,#450,#68,.T.);
#603=EDGE_CURVE('',#476,#446,#69,.T.);
#604=EDGE_CURVE('',#452,#478,#293,.T.);
#605=EDGE_CURVE('',#478,#478,#70,.T.);
#606=EDGE_CURVE('',#461,#466,#71,.T.);
#607=EDGE_CURVE('',#472,#454,#72,.T.);
#608=EDGE_CURVE('',#468,#459,#73,.T.);
#609=EDGE_CURVE('',#456,#417,#74,.T.);
#610=EDGE_CURVE('',#418,#479,#294,.T.);
#611=EDGE_CURVE('',#479,#403,#295,.T.);
#612=EDGE_CURVE('',#444,#474,#75,.T.);
#613=EDGE_CURVE('',#480,#480,#76,.T.);
#614=EDGE_CURVE('',#467,#460,#77,.T.);
#615=EDGE_CURVE('',#455,#475,#78,.T.);
#616=EDGE_CURVE('',#481,#481,#79,.T.);
#617=EDGE_CURVE('',#481,#482,#296,.T.);
#618=EDGE_CURVE('',#482,#482,#80,.T.);
#619=EDGE_CURVE('',#480,#483,#297,.T.);
#620=EDGE_CURVE('',#483,#483,#81,.T.);
#621=EDGE_CURVE('',#406,#442,#298,.T.);
#622=EDGE_CURVE('',#414,#397,#299,.T.);
#623=EDGE_CURVE('',#479,#401,#300,.T.);
#624=ORIENTED_EDGE('',*,*,#484,.F.);
#625=ORIENTED_EDGE('',*,*,#485,.F.);
#626=ORIENTED_EDGE('',*,*,#486,.F.);
#627=ORIENTED_EDGE('',*,*,#487,.F.);
#628=ORIENTED_EDGE('',*,*,#488,.F.);
#629=ORIENTED_EDGE('',*,*,#489,.F.);
#630=ORIENTED_EDGE('',*,*,#487,.T.);
#631=ORIENTED_EDGE('',*,*,#490,.F.);
#632=ORIENTED_EDGE('',*,*,#491,.F.);
#633=ORIENTED_EDGE('',*,*,#492,.T.);
#634=ORIENTED_EDGE('',*,*,#493,.T.);
#635=ORIENTED_EDGE('',*,*,#494,.T.);
#636=ORIENTED_EDGE('',*,*,#495,.T.);
#637=ORIENTED_EDGE('',*,*,#496,.T.);
#638=ORIENTED_EDGE('',*,*,#486,.T.);
#639=ORIENTED_EDGE('',*,*,#497,.F.);
#640=ORIENTED_EDGE('',*,*,#498,.F.);
#641=ORIENTED_EDGE('',*,*,#490,.T.);
#642=ORIENTED_EDGE('',*,*,#485,.T.);
#643=ORIENTED_EDGE('',*,*,#499,.F.);
#644=ORIENTED_EDGE('',*,*,#500,.F.);
#645=ORIENTED_EDGE('',*,*,#501,.F.);
#646=ORIENTED_EDGE('',*,*,#497,.T.);
#647=ORIENTED_EDGE('',*,*,#502,.T.);
#648=ORIENTED_EDGE('',*,*,#503,.F.);
#649=ORIENTED_EDGE('',*,*,#504,.F.);
#650=ORIENTED_EDGE('',*,*,#505,.T.);
#651=ORIENTED_EDGE('',*,*,#506,.F.);
#652=ORIENTED_EDGE('',*,*,#507,.F.);
#653=ORIENTED_EDGE('',*,*,#507,.T.);
#654=ORIENTED_EDGE('',*,*,#508,.F.);
#655=ORIENTED_EDGE('',*,*,#509,.F.);
#656=ORIENTED_EDGE('',*,*,#510,.T.);
#657=ORIENTED_EDGE('',*,*,#506,.T.);
#658=ORIENTED_EDGE('',*,*,#511,.F.);
#659=ORIENTED_EDGE('',*,*,#512,.F.);
#660=ORIENTED_EDGE('',*,*,#508,.T.);
#661=ORIENTED_EDGE('',*,*,#513,.T.);
#662=ORIENTED_EDGE('',*,*,#514,.F.);
#663=ORIENTED_EDGE('',*,*,#515,.F.);
#664=ORIENTED_EDGE('',*,*,#516,.F.);
#665=ORIENTED_EDGE('',*,*,#517,.F.);
#666=ORIENTED_EDGE('',*,*,#518,.F.);
#667=ORIENTED_EDGE('',*,*,#519,.T.);
#668=ORIENTED_EDGE('',*,*,#520,.F.);
#669=ORIENTED_EDGE('',*,*,#521,.T.);
#670=ORIENTED_EDGE('',*,*,#522,.T.);
#671=ORIENTED_EDGE('',*,*,#518,.T.);
#672=ORIENTED_EDGE('',*,*,#523,.T.);
#673=ORIENTED_EDGE('',*,*,#524,.T.);
#674=ORIENTED_EDGE('',*,*,#525,.T.);
#675=ORIENTED_EDGE('',*,*,#521,.F.);
#676=ORIENTED_EDGE('',*,*,#526,.T.);
#677=ORIENTED_EDGE('',*,*,#527,.T.);
#678=ORIENTED_EDGE('',*,*,#528,.T.);
#679=ORIENTED_EDGE('',*,*,#524,.F.);
#680=ORIENTED_EDGE('',*,*,#529,.T.);
#681=ORIENTED_EDGE('',*,*,#530,.T.);
#682=ORIENTED_EDGE('',*,*,#531,.T.);
#683=ORIENTED_EDGE('',*,*,#527,.F.);
#684=ORIENTED_EDGE('',*,*,#532,.T.);
#685=ORIENTED_EDGE('',*,*,#514,.T.);
#686=ORIENTED_EDGE('',*,*,#533,.T.);
#687=ORIENTED_EDGE('',*,*,#530,.F.);
#688=ORIENTED_EDGE('',*,*,#534,.T.);
#689=ORIENTED_EDGE('',*,*,#520,.T.);
#690=ORIENTED_EDGE('',*,*,#535,.T.);
#691=ORIENTED_EDGE('',*,*,#516,.T.);
#692=ORIENTED_EDGE('',*,*,#536,.T.);
#693=ORIENTED_EDGE('',*,*,#515,.T.);
#694=ORIENTED_EDGE('',*,*,#537,.T.);
#695=ORIENTED_EDGE('',*,*,#517,.T.);
#696=ORIENTED_EDGE('',*,*,#538,.T.);
#697=ORIENTED_EDGE('',*,*,#533,.F.);
#698=ORIENTED_EDGE('',*,*,#513,.F.);
#699=ORIENTED_EDGE('',*,*,#539,.T.);
#700=ORIENTED_EDGE('',*,*,#519,.F.);
#701=ORIENTED_EDGE('',*,*,#522,.F.);
#702=ORIENTED_EDGE('',*,*,#540,.F.);
#703=ORIENTED_EDGE('',*,*,#523,.F.);
#704=ORIENTED_EDGE('',*,*,#537,.F.);
#705=ORIENTED_EDGE('',*,*,#534,.F.);
#706=ORIENTED_EDGE('',*,*,#532,.F.);
#707=ORIENTED_EDGE('',*,*,#529,.F.);
#708=ORIENTED_EDGE('',*,*,#526,.F.);
#709=ORIENTED_EDGE('',*,*,#541,.F.);
#710=ORIENTED_EDGE('',*,*,#542,.F.);
#711=ORIENTED_EDGE('',*,*,#543,.F.);
#712=ORIENTED_EDGE('',*,*,#544,.F.);
#713=ORIENTED_EDGE('',*,*,#536,.F.);
#714=ORIENTED_EDGE('',*,*,#538,.F.);
#715=ORIENTED_EDGE('',*,*,#545,.T.);
#716=ORIENTED_EDGE('',*,*,#546,.T.);
#717=ORIENTED_EDGE('',*,*,#541,.T.);
#718=ORIENTED_EDGE('',*,*,#547,.T.);
#719=ORIENTED_EDGE('',*,*,#542,.T.);
#720=ORIENTED_EDGE('',*,*,#546,.F.);
#721=ORIENTED_EDGE('',*,*,#548,.T.);
#722=ORIENTED_EDGE('',*,*,#549,.T.);
#723=ORIENTED_EDGE('',*,*,#550,.T.);
#724=ORIENTED_EDGE('',*,*,#547,.F.);
#725=ORIENTED_EDGE('',*,*,#544,.T.);
#726=ORIENTED_EDGE('',*,*,#551,.T.);
#727=ORIENTED_EDGE('',*,*,#552,.T.);
#728=ORIENTED_EDGE('',*,*,#551,.F.);
#729=ORIENTED_EDGE('',*,*,#543,.T.);
#730=ORIENTED_EDGE('',*,*,#549,.F.);
#731=ORIENTED_EDGE('',*,*,#548,.F.);
#732=ORIENTED_EDGE('',*,*,#553,.T.);
#733=ORIENTED_EDGE('',*,*,#496,.F.);
#734=ORIENTED_EDGE('',*,*,#554,.T.);
#735=ORIENTED_EDGE('',*,*,#545,.F.);
#736=ORIENTED_EDGE('',*,*,#555,.F.);
#737=ORIENTED_EDGE('',*,*,#493,.F.);
#738=ORIENTED_EDGE('',*,*,#553,.F.);
#739=ORIENTED_EDGE('',*,*,#531,.F.);
#740=ORIENTED_EDGE('',*,*,#540,.T.);
#741=ORIENTED_EDGE('',*,*,#525,.F.);
#742=ORIENTED_EDGE('',*,*,#556,.T.);
#743=ORIENTED_EDGE('',*,*,#504,.T.);
#744=ORIENTED_EDGE('',*,*,#557,.F.);
#745=ORIENTED_EDGE('',*,*,#558,.F.);
#746=ORIENTED_EDGE('',*,*,#500,.T.);
#747=ORIENTED_EDGE('',*,*,#503,.T.);
#748=ORIENTED_EDGE('',*,*,#559,.T.);
#749=ORIENTED_EDGE('',*,*,#560,.F.);
#750=ORIENTED_EDGE('',*,*,#557,.T.);
#751=ORIENTED_EDGE('',*,*,#561,.F.);
#752=ORIENTED_EDGE('',*,*,#562,.T.);
#753=ORIENTED_EDGE('',*,*,#563,.T.);
#754=ORIENTED_EDGE('',*,*,#564,.F.);
#755=ORIENTED_EDGE('',*,*,#565,.F.);
#756=ORIENTED_EDGE('',*,*,#566,.F.);
#757=ORIENTED_EDGE('',*,*,#567,.F.);
#758=ORIENTED_EDGE('',*,*,#568,.F.);
#759=ORIENTED_EDGE('',*,*,#563,.F.);
#760=ORIENTED_EDGE('',*,*,#569,.F.);
#761=ORIENTED_EDGE('',*,*,#570,.F.);
#762=ORIENTED_EDGE('',*,*,#571,.F.);
#763=ORIENTED_EDGE('',*,*,#572,.F.);
#764=ORIENTED_EDGE('',*,*,#573,.F.);
#765=ORIENTED_EDGE('',*,*,#574,.F.);
#766=ORIENTED_EDGE('',*,*,#564,.T.);
#767=ORIENTED_EDGE('',*,*,#568,.T.);
#768=ORIENTED_EDGE('',*,*,#575,.F.);
#769=ORIENTED_EDGE('',*,*,#576,.F.);
#770=ORIENTED_EDGE('',*,*,#577,.F.);
#771=ORIENTED_EDGE('',*,*,#578,.F.);
#772=ORIENTED_EDGE('',*,*,#579,.F.);
#773=ORIENTED_EDGE('',*,*,#580,.F.);
#774=ORIENTED_EDGE('',*,*,#569,.T.);
#775=ORIENTED_EDGE('',*,*,#562,.F.);
#776=ORIENTED_EDGE('',*,*,#581,.F.);
#777=ORIENTED_EDGE('',*,*,#582,.T.);
#778=ORIENTED_EDGE('',*,*,#583,.T.);
#779=ORIENTED_EDGE('',*,*,#584,.F.);
#780=ORIENTED_EDGE('',*,*,#585,.F.);
#781=ORIENTED_EDGE('',*,*,#586,.F.);
#782=ORIENTED_EDGE('',*,*,#587,.F.);
#783=ORIENTED_EDGE('',*,*,#588,.F.);
#784=ORIENTED_EDGE('',*,*,#589,.F.);
#785=ORIENTED_EDGE('',*,*,#583,.F.);
#786=ORIENTED_EDGE('',*,*,#590,.F.);
#787=ORIENTED_EDGE('',*,*,#591,.F.);
#788=ORIENTED_EDGE('',*,*,#592,.F.);
#789=ORIENTED_EDGE('',*,*,#591,.T.);
#790=ORIENTED_EDGE('',*,*,#593,.F.);
#791=ORIENTED_EDGE('',*,*,#594,.F.);
#792=ORIENTED_EDGE('',*,*,#595,.F.);
#793=ORIENTED_EDGE('',*,*,#596,.F.);
#794=ORIENTED_EDGE('',*,*,#597,.F.);
#795=ORIENTED_EDGE('',*,*,#598,.F.);
#796=ORIENTED_EDGE('',*,*,#599,.F.);
#797=ORIENTED_EDGE('',*,*,#593,.T.);
#798=ORIENTED_EDGE('',*,*,#590,.T.);
#799=ORIENTED_EDGE('',*,*,#582,.F.);
#800=ORIENTED_EDGE('',*,*,#576,.T.);
#801=ORIENTED_EDGE('',*,*,#600,.T.);
#802=ORIENTED_EDGE('',*,*,#588,.T.);
#803=ORIENTED_EDGE('',*,*,#601,.F.);
#804=ORIENTED_EDGE('',*,*,#566,.T.);
#805=ORIENTED_EDGE('',*,*,#602,.F.);
#806=ORIENTED_EDGE('',*,*,#598,.T.);
#807=ORIENTED_EDGE('',*,*,#603,.T.);
#808=ORIENTED_EDGE('',*,*,#571,.T.);
#809=ORIENTED_EDGE('',*,*,#567,.T.);
#810=ORIENTED_EDGE('',*,*,#604,.T.);
#811=ORIENTED_EDGE('',*,*,#605,.T.);
#812=ORIENTED_EDGE('',*,*,#604,.F.);
#813=ORIENTED_EDGE('',*,*,#570,.T.);
#814=ORIENTED_EDGE('',*,*,#580,.T.);
#815=ORIENTED_EDGE('',*,*,#606,.T.);
#816=ORIENTED_EDGE('',*,*,#584,.T.);
#817=ORIENTED_EDGE('',*,*,#589,.T.);
#818=ORIENTED_EDGE('',*,*,#592,.T.);
#819=ORIENTED_EDGE('',*,*,#607,.T.);
#820=ORIENTED_EDGE('',*,*,#577,.T.);
#821=ORIENTED_EDGE('',*,*,#601,.T.);
#822=ORIENTED_EDGE('',*,*,#587,.T.);
#823=ORIENTED_EDGE('',*,*,#608,.T.);
#824=ORIENTED_EDGE('',*,*,#565,.T.);
#825=ORIENTED_EDGE('',*,*,#574,.T.);
#826=ORIENTED_EDGE('',*,*,#609,.T.);
#827=ORIENTED_EDGE('',*,*,#509,.T.);
#828=ORIENTED_EDGE('',*,*,#512,.T.);
#829=ORIENTED_EDGE('',*,*,#610,.T.);
#830=ORIENTED_EDGE('',*,*,#611,.T.);
#831=ORIENTED_EDGE('',*,*,#491,.T.);
#832=ORIENTED_EDGE('',*,*,#498,.T.);
#833=ORIENTED_EDGE('',*,*,#501,.T.);
#834=ORIENTED_EDGE('',*,*,#558,.T.);
#835=ORIENTED_EDGE('',*,*,#560,.T.);
#836=ORIENTED_EDGE('',*,*,#612,.T.);
#837=ORIENTED_EDGE('',*,*,#594,.T.);
#838=ORIENTED_EDGE('',*,*,#599,.T.);
#839=ORIENTED_EDGE('',*,*,#602,.T.);
#840=ORIENTED_EDGE('',*,*,#613,.T.);
#841=ORIENTED_EDGE('',*,*,#579,.T.);
#842=ORIENTED_EDGE('',*,*,#614,.F.);
#843=ORIENTED_EDGE('',*,*,#585,.T.);
#844=ORIENTED_EDGE('',*,*,#606,.F.);
#845=ORIENTED_EDGE('',*,*,#578,.T.);
#846=ORIENTED_EDGE('',*,*,#608,.F.);
#847=ORIENTED_EDGE('',*,*,#586,.T.);
#848=ORIENTED_EDGE('',*,*,#614,.T.);
#849=ORIENTED_EDGE('',*,*,#573,.T.);
#850=ORIENTED_EDGE('',*,*,#615,.T.);
#851=ORIENTED_EDGE('',*,*,#595,.T.);
#852=ORIENTED_EDGE('',*,*,#612,.F.);
#853=ORIENTED_EDGE('',*,*,#559,.F.);
#854=ORIENTED_EDGE('',*,*,#502,.F.);
#855=ORIENTED_EDGE('',*,*,#510,.F.);
#856=ORIENTED_EDGE('',*,*,#609,.F.);
#857=ORIENTED_EDGE('',*,*,#572,.T.);
#858=ORIENTED_EDGE('',*,*,#607,.F.);
#859=ORIENTED_EDGE('',*,*,#596,.T.);
#860=ORIENTED_EDGE('',*,*,#615,.F.);
#861=ORIENTED_EDGE('',*,*,#605,.F.);
#862=ORIENTED_EDGE('',*,*,#616,.F.);
#863=ORIENTED_EDGE('',*,*,#616,.T.);
#864=ORIENTED_EDGE('',*,*,#617,.T.);
#865=ORIENTED_EDGE('',*,*,#618,.F.);
#866=ORIENTED_EDGE('',*,*,#617,.F.);
#867=ORIENTED_EDGE('',*,*,#613,.F.);
#868=ORIENTED_EDGE('',*,*,#619,.T.);
#869=ORIENTED_EDGE('',*,*,#620,.F.);
#870=ORIENTED_EDGE('',*,*,#619,.F.);
#871=ORIENTED_EDGE('',*,*,#552,.F.);
#872=ORIENTED_EDGE('',*,*,#554,.F.);
#873=ORIENTED_EDGE('',*,*,#495,.F.);
#874=ORIENTED_EDGE('',*,*,#621,.T.);
#875=ORIENTED_EDGE('',*,*,#528,.F.);
#876=ORIENTED_EDGE('',*,*,#556,.F.);
#877=ORIENTED_EDGE('',*,*,#618,.T.);
#878=ORIENTED_EDGE('',*,*,#620,.T.);
#879=ORIENTED_EDGE('',*,*,#550,.F.);
#880=ORIENTED_EDGE('',*,*,#621,.F.);
#881=ORIENTED_EDGE('',*,*,#494,.F.);
#882=ORIENTED_EDGE('',*,*,#555,.T.);
#883=ORIENTED_EDGE('',*,*,#484,.T.);
#884=ORIENTED_EDGE('',*,*,#622,.F.);
#885=ORIENTED_EDGE('',*,*,#505,.F.);
#886=ORIENTED_EDGE('',*,*,#499,.T.);
#887=ORIENTED_EDGE('',*,*,#488,.T.);
#888=ORIENTED_EDGE('',*,*,#492,.F.);
#889=ORIENTED_EDGE('',*,*,#611,.F.);
#890=ORIENTED_EDGE('',*,*,#623,.T.);
#891=ORIENTED_EDGE('',*,*,#489,.T.);
#892=ORIENTED_EDGE('',*,*,#623,.F.);
#893=ORIENTED_EDGE('',*,*,#610,.F.);
#894=ORIENTED_EDGE('',*,*,#511,.T.);
#895=ORIENTED_EDGE('',*,*,#622,.T.);
#896=ORIENTED_EDGE('',*,*,#539,.F.);
#897=ORIENTED_EDGE('',*,*,#535,.F.);
#898=ORIENTED_EDGE('',*,*,#561,.T.);
#899=ORIENTED_EDGE('',*,*,#603,.F.);
#900=ORIENTED_EDGE('',*,*,#597,.T.);
#901=ORIENTED_EDGE('',*,*,#581,.T.);
#902=ORIENTED_EDGE('',*,*,#600,.F.);
#903=ORIENTED_EDGE('',*,*,#575,.T.);
#904=PLANE('',#1006);
#905=PLANE('',#1007);
#906=PLANE('',#1008);
#907=PLANE('',#1009);
#908=PLANE('',#1010);
#909=PLANE('',#1012);
#910=PLANE('',#1013);
#911=PLANE('',#1032);
#912=PLANE('',#1033);
#913=PLANE('',#1042);
#914=PLANE('',#1043);
#915=PLANE('',#1046);
#916=PLANE('',#1047);
#917=PLANE('',#1048);
#918=PLANE('',#1049);
#919=PLANE('',#1052);
#920=PLANE('',#1053);
#921=PLANE('',#1054);
#922=PLANE('',#1055);
#923=PLANE('',#1057);
#924=PLANE('',#1058);
#925=PLANE('',#1069);
#926=PLANE('',#1071);
#927=PLANE('',#1075);
#928=PLANE('',#1080);
#929=PLANE('',#1081);
#930=PLANE('',#1087);
#931=PLANE('',#1088);
#932=PLANE('',#1089);
#933=PLANE('',#1090);
#934=PLANE('',#1091);
#935=PLANE('',#1092);
#936=PLANE('',#1093);
#937=ADVANCED_FACE('',(#89),#904,.T.);
#938=ADVANCED_FACE('',(#90,#82),#905,.F.);
#939=ADVANCED_FACE('',(#91),#906,.F.);
#940=ADVANCED_FACE('',(#92),#907,.F.);
#941=ADVANCED_FACE('',(#93),#908,.F.);
#942=ADVANCED_FACE('',(#94),#909,.F.);
#943=ADVANCED_FACE('',(#95),#910,.F.);
#944=ADVANCED_FACE('',(#96),#45,.F.);
#945=ADVANCED_FACE('',(#97),#46,.F.);
#946=ADVANCED_FACE('',(#98),#21,.T.);
#947=ADVANCED_FACE('',(#99),#47,.F.);
#948=ADVANCED_FACE('',(#100),#22,.T.);
#949=ADVANCED_FACE('',(#101),#48,.F.);
#950=ADVANCED_FACE('',(#102),#23,.T.);
#951=ADVANCED_FACE('',(#103),#19,.T.);
#952=ADVANCED_FACE('',(#104),#24,.F.);
#953=ADVANCED_FACE('',(#105),#25,.T.);
#954=ADVANCED_FACE('',(#106,#83),#911,.F.);
#955=ADVANCED_FACE('',(#107),#912,.F.);
#956=ADVANCED_FACE('',(#108),#26,.T.);
#957=ADVANCED_FACE('',(#109),#27,.T.);
#958=ADVANCED_FACE('',(#110),#28,.T.);
#959=ADVANCED_FACE('',(#111),#29,.T.);
#960=ADVANCED_FACE('',(#112),#913,.F.);
#961=ADVANCED_FACE('',(#113),#914,.F.);
#962=ADVANCED_FACE('',(#114),#20,.T.);
#963=ADVANCED_FACE('',(#115),#915,.F.);
#964=ADVANCED_FACE('',(#116),#916,.F.);
#965=ADVANCED_FACE('',(#117),#917,.F.);
#966=ADVANCED_FACE('',(#118),#918,.F.);
#967=ADVANCED_FACE('',(#119),#919,.F.);
#968=ADVANCED_FACE('',(#120),#920,.F.);
#969=ADVANCED_FACE('',(#121),#921,.F.);
#970=ADVANCED_FACE('',(#122),#922,.F.);
#971=ADVANCED_FACE('',(#123),#923,.F.);
#972=ADVANCED_FACE('',(#124),#924,.F.);
#973=ADVANCED_FACE('',(#125),#30,.T.);
#974=ADVANCED_FACE('',(#126),#31,.T.);
#975=ADVANCED_FACE('',(#127),#32,.F.);
#976=ADVANCED_FACE('',(#128),#925,.F.);
#977=ADVANCED_FACE('',(#129,#84),#926,.F.);
#978=ADVANCED_FACE('',(#130),#927,.F.);
#979=ADVANCED_FACE('',(#131),#33,.F.);
#980=ADVANCED_FACE('',(#132),#34,.F.);
#981=ADVANCED_FACE('',(#133),#928,.F.);
#982=ADVANCED_FACE('',(#134,#85),#929,.F.);
#983=ADVANCED_FACE('',(#135),#35,.F.);
#984=ADVANCED_FACE('',(#136),#36,.F.);
#985=ADVANCED_FACE('',(#137),#930,.F.);
#986=ADVANCED_FACE('',(#138,#86,#87),#931,.T.);
#987=ADVANCED_FACE('',(#139),#932,.F.);
#988=ADVANCED_FACE('',(#140),#933,.F.);
#989=ADVANCED_FACE('',(#141),#934,.F.);
#990=ADVANCED_FACE('',(#142),#935,.F.);
#991=ADVANCED_FACE('',(#143,#88),#936,.F.);
#992=CLOSED_SHELL('',(#937,#938,#939,#940,#941,#942,#943,#944,#945,#946,
#947,#948,#949,#950,#951,#952,#953,#954,#955,#956,#957,#958,#959,#960,#961,
#962,#963,#964,#965,#966,#967,#968,#969,#970,#971,#972,#973,#974,#975,#976,
#977,#978,#979,#980,#981,#982,#983,#984,#985,#986,#987,#988,#989,#990,#991));
#993=DERIVED_UNIT_ELEMENT(#995,1.);
#994=DERIVED_UNIT_ELEMENT(#1826,-3.);
#995=(
MASS_UNIT()
NAMED_UNIT(*)
SI_UNIT(.KILO.,.GRAM.)
);
#996=DERIVED_UNIT((#993,#994));
#997=MEASURE_REPRESENTATION_ITEM('density measure',
POSITIVE_RATIO_MEASURE(7850.),#996);
#998=PROPERTY_DEFINITION_REPRESENTATION(#1003,#1000);
#999=PROPERTY_DEFINITION_REPRESENTATION(#1004,#1001);
#1000=REPRESENTATION('material name',(#1002),#1823);
#1001=REPRESENTATION('density',(#997),#1823);
#1002=DESCRIPTIVE_REPRESENTATION_ITEM('Steel','Steel');
#1003=PROPERTY_DEFINITION('material property','material name',#1833);
#1004=PROPERTY_DEFINITION('material property','density of part',#1833);
#1005=AXIS2_PLACEMENT_3D('',#1367,#1094,#1095);
#1006=AXIS2_PLACEMENT_3D('',#1368,#1096,#1097);
#1007=AXIS2_PLACEMENT_3D('',#1381,#1104,#1105);
#1008=AXIS2_PLACEMENT_3D('',#1395,#1113,#1114);
#1009=AXIS2_PLACEMENT_3D('',#1399,#1117,#1118);
#1010=AXIS2_PLACEMENT_3D('',#1405,#1122,#1123);
#1011=AXIS2_PLACEMENT_3D('',#1408,#1124,#1125);
#1012=AXIS2_PLACEMENT_3D('',#1417,#1131,#1132);
#1013=AXIS2_PLACEMENT_3D('',#1423,#1136,#1137);
#1014=AXIS2_PLACEMENT_3D('',#1466,#1140,#1141);
#1015=AXIS2_PLACEMENT_3D('',#1474,#1142,#1143);
#1016=AXIS2_PLACEMENT_3D('',#1514,#1144,#1145);
#1017=AXIS2_PLACEMENT_3D('',#1522,#1146,#1147);
#1018=AXIS2_PLACEMENT_3D('',#1523,#1148,#1149);
#1019=AXIS2_PLACEMENT_3D('',#1526,#1150,#1151);
#1020=AXIS2_PLACEMENT_3D('',#1566,#1154,#1155);
#1021=AXIS2_PLACEMENT_3D('',#1581,#1156,#1157);
#1022=AXIS2_PLACEMENT_3D('',#1584,#1158,#1159);
#1023=AXIS2_PLACEMENT_3D('',#1624,#1162,#1163);
#1024=AXIS2_PLACEMENT_3D('',#1639,#1164,#1165);
#1025=AXIS2_PLACEMENT_3D('',#1642,#1168,#1169);
#1026=AXIS2_PLACEMENT_3D('',#1643,#1170,#1171);
#1027=AXIS2_PLACEMENT_3D('',#1644,#1172,#1173);
#1028=AXIS2_PLACEMENT_3D('',#1645,#1174,#1175);
#1029=AXIS2_PLACEMENT_3D('',#1648,#1178,#1179);
#1030=AXIS2_PLACEMENT_3D('',#1649,#1180,#1181);
#1031=AXIS2_PLACEMENT_3D('',#1650,#1182,#1183);
#1032=AXIS2_PLACEMENT_3D('',#1651,#1184,#1185);
#1033=AXIS2_PLACEMENT_3D('',#1660,#1190,#1191);
#1034=AXIS2_PLACEMENT_3D('',#1661,#1192,#1193);
#1035=AXIS2_PLACEMENT_3D('',#1665,#1195,#1196);
#1036=AXIS2_PLACEMENT_3D('',#1666,#1197,#1198);
#1037=AXIS2_PLACEMENT_3D('',#1667,#1199,#1200);
#1038=AXIS2_PLACEMENT_3D('',#1670,#1202,#1203);
#1039=AXIS2_PLACEMENT_3D('',#1671,#1204,#1205);
#1040=AXIS2_PLACEMENT_3D('',#1674,#1207,#1208);
#1041=AXIS2_PLACEMENT_3D('',#1675,#1209,#1210);
#1042=AXIS2_PLACEMENT_3D('',#1677,#1212,#1213);
#1043=AXIS2_PLACEMENT_3D('',#1680,#1216,#1217);
#1044=AXIS2_PLACEMENT_3D('',#1682,#1219,#1220);
#1045=AXIS2_PLACEMENT_3D('',#1683,#1221,#1222);
#1046=AXIS2_PLACEMENT_3D('',#1684,#1223,#1224);
#1047=AXIS2_PLACEMENT_3D('',#1688,#1227,#1228);
#1048=AXIS2_PLACEMENT_3D('',#1692,#1231,#1232);
#1049=AXIS2_PLACEMENT_3D('',#1705,#1239,#1240);
#1050=AXIS2_PLACEMENT_3D('',#1708,#1241,#1242);
#1051=AXIS2_PLACEMENT_3D('',#1712,#1245,#1246);
#1052=AXIS2_PLACEMENT_3D('',#1713,#1247,#1248);
#1053=AXIS2_PLACEMENT_3D('',#1721,#1253,#1254);
#1054=AXIS2_PLACEMENT_3D('',#1733,#1261,#1262);
#1055=AXIS2_PLACEMENT_3D('',#1750,#1271,#1272);
#1056=AXIS2_PLACEMENT_3D('',#1752,#1273,#1274);
#1057=AXIS2_PLACEMENT_3D('',#1756,#1277,#1278);
#1058=AXIS2_PLACEMENT_3D('',#1766,#1284,#1285);
#1059=AXIS2_PLACEMENT_3D('',#1772,#1289,#1290);
#1060=AXIS2_PLACEMENT_3D('',#1773,#1291,#1292);
#1061=AXIS2_PLACEMENT_3D('',#1774,#1293,#1294);
#1062=AXIS2_PLACEMENT_3D('',#1775,#1295,#1296);
#1063=AXIS2_PLACEMENT_3D('',#1776,#1297,#1298);
#1064=AXIS2_PLACEMENT_3D('',#1777,#1299,#1300);
#1065=AXIS2_PLACEMENT_3D('',#1778,#1301,#1302);
#1066=AXIS2_PLACEMENT_3D('',#1781,#1304,#1305);
#1067=AXIS2_PLACEMENT_3D('',#1782,#1306,#1307);
#1068=AXIS2_PLACEMENT_3D('',#1783,#1308,#1309);
#1069=AXIS2_PLACEMENT_3D('',#1784,#1310,#1311);
#1070=AXIS2_PLACEMENT_3D('',#1785,#1312,#1313);
#1071=AXIS2_PLACEMENT_3D('',#1786,#1314,#1315);
#1072=AXIS2_PLACEMENT_3D('',#1787,#1316,#1317);
#1073=AXIS2_PLACEMENT_3D('',#1791,#1320,#1321);
#1074=AXIS2_PLACEMENT_3D('',#1793,#1322,#1323);
#1075=AXIS2_PLACEMENT_3D('',#1794,#1324,#1325);
#1076=AXIS2_PLACEMENT_3D('',#1795,#1326,#1327);
#1077=AXIS2_PLACEMENT_3D('',#1796,#1328,#1329);
#1078=AXIS2_PLACEMENT_3D('',#1797,#1330,#1331);
#1079=AXIS2_PLACEMENT_3D('',#1798,#1332,#1333);
#1080=AXIS2_PLACEMENT_3D('',#1799,#1334,#1335);
#1081=AXIS2_PLACEMENT_3D('',#1800,#1336,#1337);
#1082=AXIS2_PLACEMENT_3D('',#1802,#1338,#1339);
#1083=AXIS2_PLACEMENT_3D('',#1803,#1340,#1341);
#1084=AXIS2_PLACEMENT_3D('',#1806,#1343,#1344);
#1085=AXIS2_PLACEMENT_3D('',#1807,#1345,#1346);
#1086=AXIS2_PLACEMENT_3D('',#1810,#1348,#1349);
#1087=AXIS2_PLACEMENT_3D('',#1811,#1350,#1351);
#1088=AXIS2_PLACEMENT_3D('',#1813,#1353,#1354);
#1089=AXIS2_PLACEMENT_3D('',#1814,#1355,#1356);
#1090=AXIS2_PLACEMENT_3D('',#1815,#1357,#1358);
#1091=AXIS2_PLACEMENT_3D('',#1817,#1360,#1361);
#1092=AXIS2_PLACEMENT_3D('',#1819,#1363,#1364);
#1093=AXIS2_PLACEMENT_3D('',#1820,#1365,#1366);
#1094=DIRECTION('axis',(0.,0.,1.));
#1095=DIRECTION('refdir',(1.,0.,0.));
#1096=DIRECTION('center_axis',(0.,0.,-1.));
#1097=DIRECTION('ref_axis',(-1.,0.,0.));
#1098=DIRECTION('',(-1.,-2.64810395833592E-12,0.));
#1099=DIRECTION('',(0.,1.,0.));
#1100=DIRECTION('',(1.,-2.3283064365387E-9,0.));
#1101=DIRECTION('',(1.,0.,0.));
#1102=DIRECTION('',(1.,-2.3283064365387E-9,0.));
#1103=DIRECTION('',(0.,-1.,0.));
#1104=DIRECTION('center_axis',(0.,-1.,0.));
#1105=DIRECTION('ref_axis',(1.,0.,0.));
#1106=DIRECTION('',(0.,0.,1.));
#1107=DIRECTION('',(1.,0.,0.));
#1108=DIRECTION('',(0.,0.,1.));
#1109=DIRECTION('',(-1.,0.,0.));
#1110=DIRECTION('',(0.,0.,-1.));
#1111=DIRECTION('',(1.,0.,0.));
#1112=DIRECTION('',(0.,0.,1.));
#1113=DIRECTION('center_axis',(-2.3283064365387E-9,-1.,0.));
#1114=DIRECTION('ref_axis',(1.,-2.3283064365387E-9,0.));
#1115=DIRECTION('',(0.,0.,1.));
#1116=DIRECTION('',(1.,-2.3283064365387E-9,0.));
#1117=DIRECTION('center_axis',(1.,0.,0.));
#1118=DIRECTION('ref_axis',(0.,1.,0.));
#1119=DIRECTION('',(0.,0.,1.));
#1120=DIRECTION('',(0.,0.,1.));
#1121=DIRECTION('',(0.,1.,0.));
#1122=DIRECTION('center_axis',(0.,0.,1.));
#1123=DIRECTION('ref_axis',(1.,0.,0.));
#1124=DIRECTION('center_axis',(0.,0.,1.));
#1125=DIRECTION('ref_axis',(1.,0.,0.));
#1126=DIRECTION('',(0.,1.,0.));
#1127=DIRECTION('',(1.,2.64810395833592E-12,0.));
#1128=DIRECTION('',(-1.,-2.64810395833592E-12,0.));
#1129=DIRECTION('',(1.,2.64810395833592E-12,0.));
#1130=DIRECTION('',(0.,-1.,0.));
#1131=DIRECTION('center_axis',(-1.,0.,0.));
#1132=DIRECTION('ref_axis',(0.,-1.,0.));
#1133=DIRECTION('',(0.,0.,1.));
#1134=DIRECTION('',(0.,-1.,0.));
#1135=DIRECTION('',(0.,0.,1.));
#1136=DIRECTION('center_axis',(2.64810395833592E-12,-1.,0.));
#1137=DIRECTION('ref_axis',(1.,2.64810395833592E-12,0.));
#1138=DIRECTION('',(0.,0.,1.));
#1139=DIRECTION('',(1.,2.64810395833592E-12,0.));
#1140=DIRECTION('center_axis',(0.,0.,1.));
#1141=DIRECTION('ref_axis',(0.,-1.,0.));
#1142=DIRECTION('center_axis',(-0.794512105457958,-0.607248313526487,-1.76417126564565E-15));
#1143=DIRECTION('ref_axis',(0.607248313526487,-0.794512105457958,1.11022302462516E-15));
#1144=DIRECTION('center_axis',(0.,0.,1.));
#1145=DIRECTION('ref_axis',(-0.703011204803531,-0.711178772124624,0.));
#1146=DIRECTION('center_axis',(0.794512105457962,-0.607248313526482,1.76417126564566E-15));
#1147=DIRECTION('ref_axis',(-2.22044604925029E-15,0.,1.));
#1148=DIRECTION('center_axis',(0.,0.,1.));
#1149=DIRECTION('ref_axis',(-0.380013965450859,-0.924980749022548,0.));
#1150=DIRECTION('center_axis',(0.,0.,-1.));
#1151=DIRECTION('ref_axis',(0.,-1.,0.));
#1152=DIRECTION('',(0.,0.,-1.));
#1153=DIRECTION('',(0.,0.,1.));
#1154=DIRECTION('center_axis',(-1.,0.,0.));
#1155=DIRECTION('ref_axis',(0.,-1.,0.));
#1156=DIRECTION('center_axis',(1.,0.,0.));
#1157=DIRECTION('ref_axis',(0.,-0.707106781186549,0.707106781186546));
#1158=DIRECTION('center_axis',(-1.,0.,-2.22044604925031E-15));
#1159=DIRECTION('ref_axis',(0.,-1.,0.));
#1160=DIRECTION('',(-1.,0.,0.));
#1161=DIRECTION('',(1.,0.,0.));
#1162=DIRECTION('center_axis',(0.,0.,1.));
#1163=DIRECTION('ref_axis',(0.,-1.,0.));
#1164=DIRECTION('center_axis',(0.,0.,-1.));
#1165=DIRECTION('ref_axis',(0.380013965450862,-0.924980749022546,0.));
#1166=DIRECTION('',(0.,0.,1.));
#1167=DIRECTION('',(0.,0.,-1.));
#1168=DIRECTION('center_axis',(1.22124532708767E-15,-2.34722118238193E-30,
-1.));
#1169=DIRECTION('ref_axis',(-1.,0.,-1.27897692436818E-15));
#1170=DIRECTION('center_axis',(0.,0.,1.));
#1171=DIRECTION('ref_axis',(1.,0.,0.));
#1172=DIRECTION('center_axis',(1.22124532708767E-15,-2.34722118238193E-30,
-1.));
#1173=DIRECTION('ref_axis',(1.10082153040875E-16,-1.,2.48165849737885E-30));
#1174=DIRECTION('center_axis',(1.,0.,1.22124532708767E-15));
#1175=DIRECTION('ref_axis',(1.57009245868377E-15,0.707106781186548,-0.707106781186548));
#1176=DIRECTION('',(-1.,0.,-1.22124532708767E-15));
#1177=DIRECTION('',(1.,0.,1.22124532708767E-15));
#1178=DIRECTION('center_axis',(0.,0.,1.));
#1179=DIRECTION('ref_axis',(-3.82856869892695E-16,1.,0.));
#1180=DIRECTION('center_axis',(0.,0.,1.));
#1181=DIRECTION('ref_axis',(1.,0.,0.));
#1182=DIRECTION('center_axis',(0.,0.,1.));
#1183=DIRECTION('ref_axis',(1.,0.,0.));
#1184=DIRECTION('center_axis',(0.,1.,0.));
#1185=DIRECTION('ref_axis',(-1.22917547323314E-15,0.,1.));
#1186=DIRECTION('',(-1.,0.,0.));
#1187=DIRECTION('',(0.,0.,1.));
#1188=DIRECTION('',(1.,0.,0.));
#1189=DIRECTION('',(0.,0.,-1.));
#1190=DIRECTION('center_axis',(1.22124532708767E-15,-2.34722118238193E-30,
-1.));
#1191=DIRECTION('ref_axis',(1.92198989860571E-15,1.,0.));
#1192=DIRECTION('center_axis',(-1.,0.,0.));
#1193=DIRECTION('ref_axis',(0.,-0.707106781186546,-0.707106781186549));
#1194=DIRECTION('',(1.,0.,0.));
#1195=DIRECTION('center_axis',(-0.707106781186548,0.,0.707106781186547));
#1196=DIRECTION('ref_axis',(0.707106781186547,0.,0.707106781186548));
#1197=DIRECTION('center_axis',(0.707106781186548,0.,0.707106781186547));
#1198=DIRECTION('ref_axis',(0.707106781186547,0.,-0.707106781186548));
#1199=DIRECTION('center_axis',(0.,0.,1.));
#1200=DIRECTION('ref_axis',(-0.707106781186547,-0.707106781186548,0.));
#1201=DIRECTION('',(0.,0.,-1.));
#1202=DIRECTION('center_axis',(0.707106781186549,7.85046229341889E-16,0.707106781186546));
#1203=DIRECTION('ref_axis',(0.707106781186546,7.85046229341885E-16,-0.707106781186549));
#1204=DIRECTION('center_axis',(0.,0.,-1.));
#1205=DIRECTION('ref_axis',(0.707106781186547,-0.707106781186548,0.));
#1206=DIRECTION('',(0.,0.,1.));
#1207=DIRECTION('center_axis',(-0.707106781186549,0.,0.707106781186546));
#1208=DIRECTION('ref_axis',(0.707106781186546,0.,0.707106781186549));
#1209=DIRECTION('center_axis',(1.,0.,0.));
#1210=DIRECTION('ref_axis',(0.,-0.707106781186546,0.707106781186549));
#1211=DIRECTION('',(-1.,0.,0.));
#1212=DIRECTION('center_axis',(1.,0.,0.));
#1213=DIRECTION('ref_axis',(0.,0.,1.));
#1214=DIRECTION('',(0.,1.,0.));
#1215=DIRECTION('',(0.,-1.,0.));
#1216=DIRECTION('center_axis',(0.,0.,1.));
#1217=DIRECTION('ref_axis',(-1.,0.,0.));
#1218=DIRECTION('',(0.,-1.,0.));
#1219=DIRECTION('center_axis',(0.,0.,1.));
#1220=DIRECTION('ref_axis',(5.0532154980743E-16,1.,0.));
#1221=DIRECTION('center_axis',(0.,0.,-1.));
#1222=DIRECTION('ref_axis',(1.,0.,0.));
#1223=DIRECTION('center_axis',(2.64810395833592E-12,-1.,0.));
#1224=DIRECTION('ref_axis',(1.,2.64810395833592E-12,0.));
#1225=DIRECTION('',(0.,0.,1.));
#1226=DIRECTION('',(1.,2.64810395833592E-12,0.));
#1227=DIRECTION('center_axis',(1.,0.,0.));
#1228=DIRECTION('ref_axis',(0.,1.,0.));
#1229=DIRECTION('',(0.,0.,-1.));
#1230=DIRECTION('',(0.,1.,0.));
#1231=DIRECTION('center_axis',(-1.,0.,0.));
#1232=DIRECTION('ref_axis',(0.,-1.,0.));
#1233=DIRECTION('',(0.,-1.,0.));
#1234=DIRECTION('',(0.,0.,1.));
#1235=DIRECTION('',(0.,-1.,0.));
#1236=DIRECTION('',(0.,0.,1.));
#1237=DIRECTION('',(0.,-1.,0.));
#1238=DIRECTION('',(0.,0.,-1.));
#1239=DIRECTION('center_axis',(0.,0.,1.));
#1240=DIRECTION('ref_axis',(1.,0.,0.));
#1241=DIRECTION('center_axis',(0.,0.,-1.));
#1242=DIRECTION('ref_axis',(1.,0.,0.));
#1243=DIRECTION('',(1.,0.,0.));
#1244=DIRECTION('',(-1.,0.,0.));
#1245=DIRECTION('center_axis',(0.,0.,-1.));
#1246=DIRECTION('ref_axis',(1.,0.,0.));
#1247=DIRECTION('center_axis',(0.,-1.,0.));
#1248=DIRECTION('ref_axis',(1.,0.,0.));
#1249=DIRECTION('',(0.,0.,1.));
#1250=DIRECTION('',(1.,0.,0.));
#1251=DIRECTION('',(0.,0.,1.));
#1252=DIRECTION('',(1.,0.,0.));
#1253=DIRECTION('center_axis',(0.,1.,0.));
#1254=DIRECTION('ref_axis',(-1.,0.,0.));
#1255=DIRECTION('',(-1.,0.,0.));
#1256=DIRECTION('',(0.,0.,1.));
#1257=DIRECTION('',(-1.,0.,0.));
#1258=DIRECTION('',(0.,0.,-1.));
#1259=DIRECTION('',(-1.,0.,0.));
#1260=DIRECTION('',(0.,0.,-1.));
#1261=DIRECTION('center_axis',(0.,1.,0.));
#1262=DIRECTION('ref_axis',(-1.,0.,0.));
#1263=DIRECTION('',(-1.,0.,0.));
#1264=DIRECTION('',(0.,0.,1.));
#1265=DIRECTION('',(-1.,0.,0.));
#1266=DIRECTION('',(0.,0.,1.));
#1267=DIRECTION('',(-1.,0.,0.));
#1268=DIRECTION('',(0.,0.,1.));
#1269=DIRECTION('',(-1.,0.,0.));
#1270=DIRECTION('',(0.,0.,-1.));
#1271=DIRECTION('center_axis',(0.,0.,1.));
#1272=DIRECTION('ref_axis',(1.,0.,0.));
#1273=DIRECTION('center_axis',(0.,0.,-1.));
#1274=DIRECTION('ref_axis',(1.,0.,0.));
#1275=DIRECTION('',(0.,1.,0.));
#1276=DIRECTION('',(1.,0.,0.));
#1277=DIRECTION('center_axis',(0.,-1.,0.));
#1278=DIRECTION('ref_axis',(1.,0.,0.));
#1279=DIRECTION('',(0.,0.,-1.));
#1280=DIRECTION('',(0.,0.,1.));
#1281=DIRECTION('',(1.,0.,0.));
#1282=DIRECTION('',(0.,0.,-1.));
#1283=DIRECTION('',(1.,0.,0.));
#1284=DIRECTION('center_axis',(1.,0.,0.));
#1285=DIRECTION('ref_axis',(0.,1.,0.));
#1286=DIRECTION('',(0.,1.,0.));
#1287=DIRECTION('',(0.,0.,1.));
#1288=DIRECTION('',(0.,1.,0.));
#1289=DIRECTION('center_axis',(0.,0.,1.));
#1290=DIRECTION('ref_axis',(1.,0.,0.));
#1291=DIRECTION('center_axis',(0.,0.,-1.));
#1292=DIRECTION('ref_axis',(1.,0.,0.));
#1293=DIRECTION('center_axis',(0.,0.,-1.));
#1294=DIRECTION('ref_axis',(1.,0.,0.));
#1295=DIRECTION('center_axis',(0.,0.,1.));
#1296=DIRECTION('ref_axis',(-1.69860931074403E-5,-0.999999999855736,0.));
#1297=DIRECTION('center_axis',(0.,0.,-1.));
#1298=DIRECTION('ref_axis',(1.,0.,0.));
#1299=DIRECTION('center_axis',(0.,0.,-1.));
#1300=DIRECTION('ref_axis',(1.,0.,0.));
#1301=DIRECTION('center_axis',(0.,0.,1.));
#1302=DIRECTION('ref_axis',(1.,0.,0.));
#1303=DIRECTION('',(0.,0.,1.));
#1304=DIRECTION('center_axis',(0.,0.,1.));
#1305=DIRECTION('ref_axis',(1.,0.,0.));
#1306=DIRECTION('center_axis',(0.,0.,-1.));
#1307=DIRECTION('ref_axis',(1.,0.,0.));
#1308=DIRECTION('center_axis',(0.,0.,-1.));
#1309=DIRECTION('ref_axis',(1.,0.,0.));
#1310=DIRECTION('center_axis',(0.,0.,1.));
#1311=DIRECTION('ref_axis',(1.,0.,0.));
#1312=DIRECTION('center_axis',(0.,0.,1.));
#1313=DIRECTION('ref_axis',(1.,0.,0.));
#1314=DIRECTION('center_axis',(0.,0.,1.));
#1315=DIRECTION('ref_axis',(1.,0.,0.));
#1316=DIRECTION('center_axis',(0.,0.,1.));
#1317=DIRECTION('ref_axis',(1.,0.,0.));
#1318=DIRECTION('',(0.,-1.,0.));
#1319=DIRECTION('',(1.,-2.3283064365387E-9,0.));
#1320=DIRECTION('center_axis',(0.,0.,1.));
#1321=DIRECTION('ref_axis',(1.,0.,0.));
#1322=DIRECTION('center_axis',(0.,0.,1.));
#1323=DIRECTION('ref_axis',(1.,0.,0.));
#1324=DIRECTION('center_axis',(0.,0.,1.));
#1325=DIRECTION('ref_axis',(1.,0.,0.));
#1326=DIRECTION('center_axis',(0.,0.,1.));
#1327=DIRECTION('ref_axis',(1.,0.,0.));
#1328=DIRECTION('center_axis',(0.,0.,1.));
#1329=DIRECTION('ref_axis',(1.,0.,0.));
#1330=DIRECTION('center_axis',(0.,0.,1.));
#1331=DIRECTION('ref_axis',(1.,0.,0.));
#1332=DIRECTION('center_axis',(0.,0.,1.));
#1333=DIRECTION('ref_axis',(1.,0.,0.));
#1334=DIRECTION('center_axis',(0.,0.,1.));
#1335=DIRECTION('ref_axis',(1.,0.,0.));
#1336=DIRECTION('center_axis',(0.,0.,1.));
#1337=DIRECTION('ref_axis',(1.,0.,0.));
#1338=DIRECTION('center_axis',(0.,0.,-1.));
#1339=DIRECTION('ref_axis',(1.,0.,0.));
#1340=DIRECTION('center_axis',(0.,0.,1.));
#1341=DIRECTION('ref_axis',(1.,0.,0.));
#1342=DIRECTION('',(0.,0.,1.));
#1343=DIRECTION('center_axis',(0.,0.,-1.));
#1344=DIRECTION('ref_axis',(1.,0.,0.));
#1345=DIRECTION('center_axis',(0.,0.,1.));
#1346=DIRECTION('ref_axis',(1.,0.,0.));
#1347=DIRECTION('',(0.,0.,1.));
#1348=DIRECTION('center_axis',(0.,0.,-1.));
#1349=DIRECTION('ref_axis',(1.,0.,0.));
#1350=DIRECTION('center_axis',(0.,0.,-1.));
#1351=DIRECTION('ref_axis',(1.,0.,0.));
#1352=DIRECTION('',(0.,-1.,0.));
#1353=DIRECTION('center_axis',(0.,0.,1.));
#1354=DIRECTION('ref_axis',(1.,0.,0.));
#1355=DIRECTION('center_axis',(-1.,0.,0.));
#1356=DIRECTION('ref_axis',(0.,0.,-1.));
#1357=DIRECTION('center_axis',(-2.64810395833592E-12,1.,0.));
#1358=DIRECTION('ref_axis',(-1.,-2.64810395833592E-12,0.));
#1359=DIRECTION('',(0.,0.,1.));
#1360=DIRECTION('center_axis',(-2.3283064365387E-9,-1.,0.));
#1361=DIRECTION('ref_axis',(1.,-2.3283064365387E-9,0.));
#1362=DIRECTION('',(0.,0.,1.));
#1363=DIRECTION('center_axis',(-1.,0.,0.));
#1364=DIRECTION('ref_axis',(0.,-1.,0.));
#1365=DIRECTION('center_axis',(0.,0.,1.));
#1366=DIRECTION('ref_axis',(1.,0.,0.));
#1367=CARTESIAN_POINT('',(0.,0.,0.));
#1368=CARTESIAN_POINT('Origin',(-1.49011614158923E-7,-1.49999963919704,
29.));
#1369=CARTESIAN_POINT('',(8.25000018440187,-13.9999996200647,29.));
#1370=CARTESIAN_POINT('',(-8.24999981559813,-13.9999996201084,29.));
#1371=CARTESIAN_POINT('',(4.12500001771168,-13.9999996200757,29.));
#1372=CARTESIAN_POINT('',(8.25000018440187,-16.9999996584374,29.));
#1373=CARTESIAN_POINT('',(8.25000018440187,-9.24999964881724,29.));
#1374=CARTESIAN_POINT('',(6.99999989569187,-16.9999996228144,29.));
#1375=CARTESIAN_POINT('',(3.49999985529575,-16.999999647378,29.));
#1376=CARTESIAN_POINT('',(-7.00000010430813,-16.9999996228144,29.));
#1377=CARTESIAN_POINT('',(-3.50000012665987,-16.9999996228144,29.));
#1378=CARTESIAN_POINT('',(-8.24999981559813,-16.9999996200204,29.));
#1379=CARTESIAN_POINT('',(-4.12500000034925,-16.9999996296247,29.));
#1380=CARTESIAN_POINT('',(-8.24999981559813,-7.74999962965274,29.));
#1381=CARTESIAN_POINT('Origin',(-7.00000010430813,-16.9999996228144,0.));
#1382=CARTESIAN_POINT('',(6.99999989569187,-16.9999996228144,0.));
#1383=CARTESIAN_POINT('',(6.99999989569187,-16.9999996228144,0.));
#1384=CARTESIAN_POINT('',(-7.00000010430813,-16.9999996228144,0.));
#1385=CARTESIAN_POINT('',(-3.50000005215406,-16.9999996228144,0.));
#1386=CARTESIAN_POINT('',(-7.00000010430813,-16.9999996228144,0.));
#1387=CARTESIAN_POINT('',(6.00000008940697,-16.9999996228144,24.0000002980232));
#1388=CARTESIAN_POINT('',(-5.99999991059303,-16.9999996228144,24.0000002980232));
#1389=CARTESIAN_POINT('',(-6.50000000745058,-16.9999996228144,24.0000002980232));
#1390=CARTESIAN_POINT('',(-5.99999991059303,-16.9999996228144,12.0000002980232));
#1391=CARTESIAN_POINT('',(-5.99999991059303,-16.9999996228144,6.00000014901161));
#1392=CARTESIAN_POINT('',(6.00000008940697,-16.9999996228144,12.0000002980232));
#1393=CARTESIAN_POINT('',(-0.500000007450581,-16.9999996228144,12.0000002980232));
#1394=CARTESIAN_POINT('',(6.00000008940697,-16.9999996228144,12.0000001490116));
#1395=CARTESIAN_POINT('Origin',(6.99999989569187,-16.9999996555271,0.));
#1396=CARTESIAN_POINT('',(8.25000018440187,-16.9999996584374,0.));
#1397=CARTESIAN_POINT('',(8.25000018440187,-16.9999996584374,0.));
#1398=CARTESIAN_POINT('',(3.49999992805533,-16.999999647378,0.));
#1399=CARTESIAN_POINT('Origin',(8.25000018440187,-16.9999996584374,0.));
#1400=CARTESIAN_POINT('',(8.25000018440187,-13.9999996200647,13.));
#1401=CARTESIAN_POINT('',(8.25000018440187,-13.9999996200647,0.));
#1402=CARTESIAN_POINT('',(8.25000018440187,-13.9999996200647,0.));
#1403=CARTESIAN_POINT('',(8.25000018440187,-13.9999996200647,0.));
#1404=CARTESIAN_POINT('',(8.25000018440187,-8.49999982921872,0.));
#1405=CARTESIAN_POINT('Origin',(-1.49011614158923E-7,3.79965146013461E-7,
13.));
#1406=CARTESIAN_POINT('',(-10.0000001490116,-7.51357876554347,13.));
#1407=CARTESIAN_POINT('',(9.99999985098839,-7.51357902438846,13.));
#1408=CARTESIAN_POINT('Origin',(0.,4.00000004470348,13.));
#1409=CARTESIAN_POINT('',(9.99999985098839,-13.9999996200601,13.));
#1410=CARTESIAN_POINT('',(9.99999985098839,-6.99999962004748,13.));
#1411=CARTESIAN_POINT('',(4.12500001771367,-13.9999996200757,13.));
#1412=CARTESIAN_POINT('',(-8.24999981559813,-13.9999996201084,13.));
#1413=CARTESIAN_POINT('',(4.12500001771367,-13.9999996200757,13.));
#1414=CARTESIAN_POINT('',(-10.0000001490116,-13.9999996201131,13.));
#1415=CARTESIAN_POINT('',(-5.00000014899308,-13.9999996200998,13.));
#1416=CARTESIAN_POINT('',(-10.0000001490116,7.00000037992604,13.));
#1417=CARTESIAN_POINT('Origin',(-10.0000001490116,14.0000003798869,0.));
#1418=CARTESIAN_POINT('',(-10.0000001490116,-13.9999996201131,0.));
#1419=CARTESIAN_POINT('',(-10.0000001490116,-13.9999996201131,0.));
#1420=CARTESIAN_POINT('',(-10.0000001490116,-7.51357876554347,0.));
#1421=CARTESIAN_POINT('',(-10.0000001490116,7.00000018994347,0.));
#1422=CARTESIAN_POINT('',(-10.0000001490116,-7.51357876554347,0.));
#1423=CARTESIAN_POINT('Origin',(-10.0000001490116,-13.9999996201131,0.));
#1424=CARTESIAN_POINT('',(-8.24999981559813,-13.9999996201084,0.));
#1425=CARTESIAN_POINT('',(-8.24999981559813,-13.9999996201084,0.));
#1426=CARTESIAN_POINT('',(-5.00000007448727,-13.9999996200998,0.));
#1427=CARTESIAN_POINT('Ctrl Pts',(16.8722689152847,-18.068290530991,10.0000002831221));
#1428=CARTESIAN_POINT('Ctrl Pts',(16.8722689152847,-18.068290530991,9.80821691673176));
#1429=CARTESIAN_POINT('Ctrl Pts',(16.6297246848005,-18.1897070092602,9.43915386266473));
#1430=CARTESIAN_POINT('Ctrl Pts',(15.7746343247636,-18.5869425320262,9.07406505644758));
#1431=CARTESIAN_POINT('Ctrl Pts',(15.0310821433035,-18.8936003422865,9.0000002831221));
#1432=CARTESIAN_POINT('Ctrl Pts',(14.5739595246357,-19.068290530991,9.00000028312209));
#1433=CARTESIAN_POINT('Ctrl Pts',(17.0207684941519,-18.068290530991,10.0000002831221));
#1434=CARTESIAN_POINT('Ctrl Pts',(17.0207684941519,-18.068290530991,9.77943783697694));
#1435=CARTESIAN_POINT('Ctrl Pts',(16.7800202996867,-18.2266135772246,9.35582064994286));
#1436=CARTESIAN_POINT('Ctrl Pts',(15.9343203996872,-18.7340108647338,8.98158072889209));
#1437=CARTESIAN_POINT('Ctrl Pts',(15.2020922056334,-19.1060419729186,8.95720404634537));
#1438=CARTESIAN_POINT('Ctrl Pts',(14.7556477951766,-19.3060079970572,9.0000002831221));
#1439=CARTESIAN_POINT('Ctrl Pts',(17.2804722654446,-18.0093786209609,10.0000002831221));
#1440=CARTESIAN_POINT('Ctrl Pts',(17.2804722654446,-18.0093786209609,9.71771364942422));
#1441=CARTESIAN_POINT('Ctrl Pts',(17.0435610108729,-18.2220244914899,9.17721715461312));
#1442=CARTESIAN_POINT('Ctrl Pts',(16.2133161512705,-18.9110878629738,8.7014812183836));
#1443=CARTESIAN_POINT('Ctrl Pts',(15.5003414482851,-19.4312982633454,8.68284172422694));
#1444=CARTESIAN_POINT('Ctrl Pts',(15.0701744921464,-19.7175287253421,8.74883224633175));
#1445=CARTESIAN_POINT('Ctrl Pts',(17.4960728089684,-17.8577669540048,10.0000002831221));
#1446=CARTESIAN_POINT('Ctrl Pts',(17.4960728089684,-17.8577669540048,9.64681195480883));
#1447=CARTESIAN_POINT('Ctrl Pts',(17.2503833859888,-18.1010082247787,8.96802980154512));
#1448=CARTESIAN_POINT('Ctrl Pts',(16.3866290793733,-18.8979840728883,8.31409713880925));
#1449=CARTESIAN_POINT('Ctrl Pts',(15.6383012147399,-19.5129941596411,8.20474391429103));
#1450=CARTESIAN_POINT('Ctrl Pts',(15.1812078381622,-19.862802636449,8.22439975837851));
#1451=CARTESIAN_POINT('Ctrl Pts',(17.5752801200883,-17.7794693031156,10.0000002831221));
#1452=CARTESIAN_POINT('Ctrl Pts',(17.5752801200882,-17.7794693031156,9.61643355034137));
#1453=CARTESIAN_POINT('Ctrl Pts',(17.3226298800005,-18.0324202995098,8.87830744220734));
#1454=CARTESIAN_POINT('Ctrl Pts',(16.4319107549621,-18.8599943052722,8.14812982977305));
#1455=CARTESIAN_POINT('Ctrl Pts',(15.6573772326078,-19.4988647433147,8.0000002831221));
#1456=CARTESIAN_POINT('Ctrl Pts',(15.1812078381622,-19.862802636449,8.00000028312209));
#1457=CARTESIAN_POINT('',(15.1812078381622,-19.862802636449,8.00000028312208));
#1458=CARTESIAN_POINT('',(17.5752801200883,-17.7794693031156,10.0000002831221));
#1459=CARTESIAN_POINT('Ctrl Pts',(15.1812078381622,-19.862802636449,8.00000028312209));
#1460=CARTESIAN_POINT('Ctrl Pts',(15.6573772326078,-19.4988647433147,8.0000002831221));
#1461=CARTESIAN_POINT('Ctrl Pts',(16.4319107549621,-18.8599943052722,8.14812982977305));
#1462=CARTESIAN_POINT('Ctrl Pts',(17.3226298800005,-18.0324202995098,8.87830744220734));
#1463=CARTESIAN_POINT('Ctrl Pts',(17.5752801200882,-17.7794693031156,9.61643355034137));
#1464=CARTESIAN_POINT('Ctrl Pts',(17.5752801200883,-17.7794693031156,10.0000002831221));
#1465=CARTESIAN_POINT('',(16.8722689152847,-18.068290530991,10.0000002831221));
#1466=CARTESIAN_POINT('Origin',(16.8722689152847,-17.068290530991,10.0000002831221));
#1467=CARTESIAN_POINT('',(14.5739595246357,-19.068290530991,9.00000028312209));
#1468=CARTESIAN_POINT('Ctrl Pts',(16.8722689152847,-18.068290530991,10.0000002831221));
#1469=CARTESIAN_POINT('Ctrl Pts',(16.8722689152847,-18.068290530991,9.80821691673176));
#1470=CARTESIAN_POINT('Ctrl Pts',(16.6297246848005,-18.1897070092602,9.43915386266473));
#1471=CARTESIAN_POINT('Ctrl Pts',(15.7746343247636,-18.5869425320262,9.07406505644758));
#1472=CARTESIAN_POINT('Ctrl Pts',(15.0310821433035,-18.8936003422865,9.0000002831221));
#1473=CARTESIAN_POINT('Ctrl Pts',(14.5739595246357,-19.068290530991,9.00000028312209));
#1474=CARTESIAN_POINT('Origin',(14.5739595246357,-19.068290530991,8.00000028312208));
#1475=CARTESIAN_POINT('Ctrl Pts',(-14.5739595246357,-19.068290530991,9.00000028312206));
#1476=CARTESIAN_POINT('Ctrl Pts',(-15.0310850592866,-18.8935992279386,9.00000028312206));
#1477=CARTESIAN_POINT('Ctrl Pts',(-15.7746132604622,-18.5869520424743,9.07405165282004));
#1478=CARTESIAN_POINT('Ctrl Pts',(-16.6297428083774,-18.1896985586955,9.43915588691225));
#1479=CARTESIAN_POINT('Ctrl Pts',(-16.8722689152847,-18.068290530991,9.80821569334651));
#1480=CARTESIAN_POINT('Ctrl Pts',(-16.8722689152847,-18.068290530991,10.0000002831221));
#1481=CARTESIAN_POINT('Ctrl Pts',(-14.7556477951766,-19.3060079970572,9.00000028312206));
#1482=CARTESIAN_POINT('Ctrl Pts',(-15.2020950535003,-19.1060406973363,8.95720377334832));
#1483=CARTESIAN_POINT('Ctrl Pts',(-15.9342996126729,-18.7340228309297,8.98156647026444));
#1484=CARTESIAN_POINT('Ctrl Pts',(-16.7800382250361,-18.2266027758233,9.35582202142201));
#1485=CARTESIAN_POINT('Ctrl Pts',(-17.0207684941519,-18.068290530991,9.77943643001009));
#1486=CARTESIAN_POINT('Ctrl Pts',(-17.0207684941519,-18.068290530991,10.0000002831221));
#1487=CARTESIAN_POINT('Ctrl Pts',(-15.0701744921464,-19.7175287253421,8.74883224633171));
#1488=CARTESIAN_POINT('Ctrl Pts',(-15.5003441923182,-19.4312964374826,8.68284130327365));
#1489=CARTESIAN_POINT('Ctrl Pts',(-16.2132958040832,-18.9111042251773,8.70146311453809));
#1490=CARTESIAN_POINT('Ctrl Pts',(-17.0435786084721,-18.2220098317737,9.17721883609241));
#1491=CARTESIAN_POINT('Ctrl Pts',(-17.2804722654446,-18.0093786209609,9.71771184871913));
#1492=CARTESIAN_POINT('Ctrl Pts',(-17.2804722654446,-18.0093786209609,10.0000002831221));
#1493=CARTESIAN_POINT('Ctrl Pts',(-15.1812078381622,-19.862802636449,8.22439975837847));
#1494=CARTESIAN_POINT('Ctrl Pts',(-15.6383041305365,-19.5129919282143,8.20474378890644));
#1495=CARTESIAN_POINT('Ctrl Pts',(-16.3866078387497,-18.8980031492343,8.31407293896269));
#1496=CARTESIAN_POINT('Ctrl Pts',(-17.2504016938394,-18.1009912722922,8.96803314149684));
#1497=CARTESIAN_POINT('Ctrl Pts',(-17.4960728089684,-17.8577669540048,9.64680970182219));
#1498=CARTESIAN_POINT('Ctrl Pts',(-17.4960728089684,-17.8577669540048,10.0000002831221));
#1499=CARTESIAN_POINT('Ctrl Pts',(-15.1812078381622,-19.862802636449,8.00000028312205));
#1500=CARTESIAN_POINT('Ctrl Pts',(-15.6573802700902,-19.4988624217565,8.00000028312205));
#1501=CARTESIAN_POINT('Ctrl Pts',(-16.4318888129815,-18.8600141187058,8.14810302251806));
#1502=CARTESIAN_POINT('Ctrl Pts',(-17.3226487587264,-18.0324026941667,8.87831149070244));
#1503=CARTESIAN_POINT('Ctrl Pts',(-17.5752801200883,-17.7794693031156,9.61643110357104));
#1504=CARTESIAN_POINT('Ctrl Pts',(-17.5752801200882,-17.7794693031156,10.0000002831221));
#1505=CARTESIAN_POINT('',(-16.8722689152847,-18.068290530991,10.0000002831221));
#1506=CARTESIAN_POINT('',(-14.5739595246357,-19.068290530991,9.00000028312206));
#1507=CARTESIAN_POINT('Ctrl Pts',(-14.5739595246357,-19.068290530991,9.00000028312206));
#1508=CARTESIAN_POINT('Ctrl Pts',(-15.0310850592866,-18.8935992279386,9.00000028312206));
#1509=CARTESIAN_POINT('Ctrl Pts',(-15.7746132604622,-18.5869520424743,9.07405165282004));
#1510=CARTESIAN_POINT('Ctrl Pts',(-16.6297428083774,-18.1896985586955,9.43915588691225));
#1511=CARTESIAN_POINT('Ctrl Pts',(-16.8722689152847,-18.068290530991,9.80821569334651));
#1512=CARTESIAN_POINT('Ctrl Pts',(-16.8722689152847,-18.068290530991,10.0000002831221));
#1513=CARTESIAN_POINT('',(-17.5752801200883,-17.7794693031156,10.0000002831221));
#1514=CARTESIAN_POINT('Origin',(-16.8722689152847,-17.068290530991,10.0000002831221));
#1515=CARTESIAN_POINT('',(-15.1812078381622,-19.862802636449,8.00000028312205));
#1516=CARTESIAN_POINT('Ctrl Pts',(-17.5752801200882,-17.7794693031156,10.0000002831221));
#1517=CARTESIAN_POINT('Ctrl Pts',(-17.5752801200883,-17.7794693031156,9.61643110357104));
#1518=CARTESIAN_POINT('Ctrl Pts',(-17.3226487587264,-18.0324026941667,8.87831149070244));
#1519=CARTESIAN_POINT('Ctrl Pts',(-16.4318888129815,-18.8600141187058,8.14810302251806));
#1520=CARTESIAN_POINT('Ctrl Pts',(-15.6573802700902,-19.4988624217565,8.00000028312205));
#1521=CARTESIAN_POINT('Ctrl Pts',(-15.1812078381622,-19.862802636449,8.00000028312205));
#1522=CARTESIAN_POINT('Origin',(-14.5739595246357,-19.068290530991,8.00000028312205));
#1523=CARTESIAN_POINT('Origin',(-16.8722689152847,-17.068290530991,0.));
#1524=CARTESIAN_POINT('',(-16.8722689152847,-18.068290530991,34.));
#1525=CARTESIAN_POINT('',(-17.5752801200883,-17.7794693031156,34.));
#1526=CARTESIAN_POINT('Origin',(-16.8722689152847,-17.068290530991,34.));
#1527=CARTESIAN_POINT('',(-17.5752801200883,-17.7794693031156,0.));
#1528=CARTESIAN_POINT('',(-16.8722689152847,-18.068290530991,0.));
#1529=CARTESIAN_POINT('Ctrl Pts',(-16.8722689152847,-18.068290530991,34.));
#1530=CARTESIAN_POINT('Ctrl Pts',(-16.8722689152847,-18.068290530991,34.2906796927085));
#1531=CARTESIAN_POINT('Ctrl Pts',(-16.7491186318667,-18.068290530991,34.8703118797561));
#1532=CARTESIAN_POINT('Ctrl Pts',(-16.0931740436911,-18.068290530991,35.8550321717498));
#1533=CARTESIAN_POINT('Ctrl Pts',(-14.5720954713865,-18.068290530991,36.7956183727791));
#1534=CARTESIAN_POINT('Ctrl Pts',(-13.1061495218678,-18.068290530991,37.));
#1535=CARTESIAN_POINT('Ctrl Pts',(-12.2341104437422,-18.068290530991,37.));
#1536=CARTESIAN_POINT('Ctrl Pts',(-17.0207684941519,-18.068290530991,34.));
#1537=CARTESIAN_POINT('Ctrl Pts',(-17.0207684941519,-18.068290530991,34.3111521633141));
#1538=CARTESIAN_POINT('Ctrl Pts',(-16.8938201389388,-18.0680179270753,34.9315236396813));
#1539=CARTESIAN_POINT('Ctrl Pts',(-16.2175880760196,-18.0677733147403,35.9899626046238));
#1540=CARTESIAN_POINT('Ctrl Pts',(-14.6489704413554,-18.0679127923057,37.0180559664139));
#1541=CARTESIAN_POINT('Ctrl Pts',(-13.1357950443681,-18.0672101992497,37.2724143060507));
#1542=CARTESIAN_POINT('Ctrl Pts',(-12.2341104437422,-18.068290530991,37.2991993003419));
#1543=CARTESIAN_POINT('Ctrl Pts',(-17.2804698004675,-18.0093732859225,34.));
#1544=CARTESIAN_POINT('Ctrl Pts',(-17.2804698004675,-18.0093732859225,34.3469384877551));
#1545=CARTESIAN_POINT('Ctrl Pts',(-17.1468421000464,-18.005544744685,35.0389123612595));
#1546=CARTESIAN_POINT('Ctrl Pts',(-16.4349141235697,-17.9841011657536,36.2265720452528));
#1547=CARTESIAN_POINT('Ctrl Pts',(-14.7826847520072,-17.929555596652,37.4070194983878));
#1548=CARTESIAN_POINT('Ctrl Pts',(-13.1867173249967,-17.8640271521556,37.7476621564399));
#1549=CARTESIAN_POINT('Ctrl Pts',(-12.2341104437423,-17.8170649993099,37.8170843211447));
#1550=CARTESIAN_POINT('Ctrl Pts',(-17.4960728089684,-17.8577669540048,34.));
#1551=CARTESIAN_POINT('Ctrl Pts',(-17.4960728089684,-17.8577669540048,34.376660698482));
#1552=CARTESIAN_POINT('Ctrl Pts',(-17.354016399151,-17.8444824878577,35.1277269887368));
#1553=CARTESIAN_POINT('Ctrl Pts',(-16.5989173618476,-17.7723495709329,36.4099694360731));
#1554=CARTESIAN_POINT('Ctrl Pts',(-14.8573494031583,-17.5974593221341,37.6580629279615));
#1555=CARTESIAN_POINT('Ctrl Pts',(-13.2048851114016,-17.4109477107049,37.9688223639196));
#1556=CARTESIAN_POINT('Ctrl Pts',(-12.2341104437422,-17.2926900062474,38.));
#1557=CARTESIAN_POINT('Ctrl Pts',(-17.5752801200883,-17.7794693031156,34.));
#1558=CARTESIAN_POINT('Ctrl Pts',(-17.5752801200883,-17.7794693031156,34.3875729236113));
#1559=CARTESIAN_POINT('Ctrl Pts',(-17.4291416604825,-17.7615364245183,35.1604158396747));
#1560=CARTESIAN_POINT('Ctrl Pts',(-16.6536504727953,-17.6651593759552,36.4733762289997));
#1561=CARTESIAN_POINT('Ctrl Pts',(-14.8732200600751,-17.4363100379611,37.7274911637055));
#1562=CARTESIAN_POINT('Ctrl Pts',(-13.2048049297583,-17.2059285858436,38.));
#1563=CARTESIAN_POINT('Ctrl Pts',(-12.2341104437422,-17.068290530991,38.));
#1564=CARTESIAN_POINT('',(-12.2341104437422,-18.068290530991,37.));
#1565=CARTESIAN_POINT('',(-12.2341104437422,-17.068290530991,38.));
#1566=CARTESIAN_POINT('Origin',(-12.2341104437422,-17.068290530991,37.));
#1567=CARTESIAN_POINT('Ctrl Pts',(-12.2341104437422,-17.068290530991,38.));
#1568=CARTESIAN_POINT('Ctrl Pts',(-13.2048049297583,-17.2059285858436,38.));
#1569=CARTESIAN_POINT('Ctrl Pts',(-14.8732200600751,-17.4363100379611,37.7274911637055));
#1570=CARTESIAN_POINT('Ctrl Pts',(-16.6536504727953,-17.6651593759552,36.4733762289997));
#1571=CARTESIAN_POINT('Ctrl Pts',(-17.4291416604825,-17.7615364245183,35.1604158396747));
#1572=CARTESIAN_POINT('Ctrl Pts',(-17.5752801200883,-17.7794693031156,34.3875729236113));
#1573=CARTESIAN_POINT('Ctrl Pts',(-17.5752801200883,-17.7794693031156,34.));
#1574=CARTESIAN_POINT('Ctrl Pts',(-16.8722689152847,-18.068290530991,34.));
#1575=CARTESIAN_POINT('Ctrl Pts',(-16.8722689152847,-18.068290530991,34.2906796927085));
#1576=CARTESIAN_POINT('Ctrl Pts',(-16.7491186318667,-18.068290530991,34.8703118797561));
#1577=CARTESIAN_POINT('Ctrl Pts',(-16.0931740436911,-18.068290530991,35.8550321717498));
#1578=CARTESIAN_POINT('Ctrl Pts',(-14.5720954713865,-18.068290530991,36.7956183727791));
#1579=CARTESIAN_POINT('Ctrl Pts',(-13.1061495218678,-18.068290530991,37.));
#1580=CARTESIAN_POINT('Ctrl Pts',(-12.2341104437422,-18.068290530991,37.));
#1581=CARTESIAN_POINT('Origin',(-4.49999995529651,-17.068290530991,37.));
#1582=CARTESIAN_POINT('',(12.2341104437422,-18.068290530991,37.));
#1583=CARTESIAN_POINT('',(12.2341104437422,-17.068290530991,38.));
#1584=CARTESIAN_POINT('Origin',(12.2341104437422,-17.068290530991,37.));
#1585=CARTESIAN_POINT('',(-4.49999995529651,-17.068290530991,38.));
#1586=CARTESIAN_POINT('',(-4.49999995529651,-18.068290530991,37.));
#1587=CARTESIAN_POINT('Ctrl Pts',(12.2341104437422,-18.068290530991,37.));
#1588=CARTESIAN_POINT('Ctrl Pts',(13.106194382314,-18.068290530991,37.));
#1589=CARTESIAN_POINT('Ctrl Pts',(14.572605545789,-18.068290530991,36.795892504629));
#1590=CARTESIAN_POINT('Ctrl Pts',(16.0288593627153,-18.068290530991,35.8930541367035));
#1591=CARTESIAN_POINT('Ctrl Pts',(16.7162730826046,-18.068290530991,34.9392789118814));
#1592=CARTESIAN_POINT('Ctrl Pts',(16.8722689152847,-18.068290530991,34.3633683077382));
#1593=CARTESIAN_POINT('Ctrl Pts',(16.8722689152847,-18.068290530991,34.));
#1594=CARTESIAN_POINT('Ctrl Pts',(12.2341104437422,-18.068290530991,37.2991993003419));
#1595=CARTESIAN_POINT('Ctrl Pts',(13.1358414298736,-18.067210143674,37.2724129281459));
#1596=CARTESIAN_POINT('Ctrl Pts',(14.6494851442852,-18.0682835485515,37.0185140083691));
#1597=CARTESIAN_POINT('Ctrl Pts',(16.1512626568569,-18.0677958398509,36.0315820321805));
#1598=CARTESIAN_POINT('Ctrl Pts',(16.8599611364506,-18.0679954963791,35.0054212567512));
#1599=CARTESIAN_POINT('Ctrl Pts',(17.0207684941519,-18.068290530991,34.3889602124558));
#1600=CARTESIAN_POINT('Ctrl Pts',(17.0207684941519,-18.068290530991,34.));
#1601=CARTESIAN_POINT('Ctrl Pts',(12.2341104437422,-17.8170649856018,37.8170843046969));
#1602=CARTESIAN_POINT('Ctrl Pts',(13.1867663301053,-17.8640295543291,37.7476585686966));
#1603=CARTESIAN_POINT('Ctrl Pts',(14.7832520016181,-17.9294775812116,37.4072783787896));
#1604=CARTESIAN_POINT('Ctrl Pts',(16.3650616129206,-17.9818065751515,36.2744249821857));
#1605=CARTESIAN_POINT('Ctrl Pts',(17.111212245021,-18.0045343194099,35.1214568943469));
#1606=CARTESIAN_POINT('Ctrl Pts',(17.2804697998798,-18.0093732846505,34.4336954192092));
#1607=CARTESIAN_POINT('Ctrl Pts',(17.2804697998798,-18.0093732846505,34.));
#1608=CARTESIAN_POINT('Ctrl Pts',(12.2341104437422,-17.2926900062474,38.));
#1609=CARTESIAN_POINT('Ctrl Pts',(13.2049350511186,-17.410953794255,37.9688207600434));
#1610=CARTESIAN_POINT('Ctrl Pts',(14.8579385798056,-17.5974370835706,37.658514503257));
#1611=CARTESIAN_POINT('Ctrl Pts',(16.5252482467542,-17.764973144385,36.460500047186));
#1612=CARTESIAN_POINT('Ctrl Pts',(17.3160819289255,-17.8409609757236,35.2172106367863));
#1613=CARTESIAN_POINT('Ctrl Pts',(17.4960728089684,-17.8577669540048,34.4708500938734));
#1614=CARTESIAN_POINT('Ctrl Pts',(17.4960728089684,-17.8577669540048,34.));
#1615=CARTESIAN_POINT('Ctrl Pts',(12.2341104437422,-17.068290530991,38.));
#1616=CARTESIAN_POINT('Ctrl Pts',(13.2048548653504,-17.2059356663801,38.));
#1617=CARTESIAN_POINT('Ctrl Pts',(14.873846383692,-17.4363715973526,37.7278566728387));
#1618=CARTESIAN_POINT('Ctrl Pts',(16.5783136087346,-17.6554994166219,36.5240721822714));
#1619=CARTESIAN_POINT('Ctrl Pts',(17.3900833391071,-17.7567729819878,35.2523718825086));
#1620=CARTESIAN_POINT('Ctrl Pts',(17.5752801200883,-17.7794693031156,34.4844910769843));
#1621=CARTESIAN_POINT('Ctrl Pts',(17.5752801200883,-17.7794693031156,34.));
#1622=CARTESIAN_POINT('',(16.8722689152847,-18.068290530991,34.));
#1623=CARTESIAN_POINT('',(17.5752801200883,-17.7794693031156,34.));
#1624=CARTESIAN_POINT('Origin',(16.8722689152847,-17.068290530991,34.));
#1625=CARTESIAN_POINT('Ctrl Pts',(17.5752801200883,-17.7794693031156,34.));
#1626=CARTESIAN_POINT('Ctrl Pts',(17.5752801200883,-17.7794693031156,34.4844910769843));
#1627=CARTESIAN_POINT('Ctrl Pts',(17.3900833391071,-17.7567729819878,35.2523718825086));
#1628=CARTESIAN_POINT('Ctrl Pts',(16.5783136087346,-17.6554994166219,36.5240721822714));
#1629=CARTESIAN_POINT('Ctrl Pts',(14.873846383692,-17.4363715973526,37.7278566728387));
#1630=CARTESIAN_POINT('Ctrl Pts',(13.2048548653504,-17.2059356663801,38.));
#1631=CARTESIAN_POINT('Ctrl Pts',(12.2341104437422,-17.068290530991,38.));
#1632=CARTESIAN_POINT('Ctrl Pts',(12.2341104437422,-18.068290530991,37.));
#1633=CARTESIAN_POINT('Ctrl Pts',(13.106194382314,-18.068290530991,37.));
#1634=CARTESIAN_POINT('Ctrl Pts',(14.572605545789,-18.068290530991,36.795892504629));
#1635=CARTESIAN_POINT('Ctrl Pts',(16.0288593627153,-18.068290530991,35.8930541367035));
#1636=CARTESIAN_POINT('Ctrl Pts',(16.7162730826046,-18.068290530991,34.9392789118814));
#1637=CARTESIAN_POINT('Ctrl Pts',(16.8722689152847,-18.068290530991,34.3633683077382));
#1638=CARTESIAN_POINT('Ctrl Pts',(16.8722689152847,-18.068290530991,34.));
#1639=CARTESIAN_POINT('Origin',(16.8722689152847,-17.068290530991,0.));
#1640=CARTESIAN_POINT('',(17.5752801200883,-17.7794693031156,0.));
#1641=CARTESIAN_POINT('',(16.8722689152847,-18.068290530991,0.));
#1642=CARTESIAN_POINT('Origin',(0.,0.,8.00000028312206));
#1643=CARTESIAN_POINT('Origin',(0.,0.,8.));
#1644=CARTESIAN_POINT('Origin',(-1.22124532708769E-15,2.34722118238196E-30,
9.00000028312208));
#1645=CARTESIAN_POINT('Origin',(-8.99999991059303,-19.068290530991,10.0000002831221));
#1646=CARTESIAN_POINT('',(-8.99999991059303,-18.068290530991,10.0000002831221));
#1647=CARTESIAN_POINT('',(-8.99999991059303,-19.068290530991,9.00000028312206));
#1648=CARTESIAN_POINT('Origin',(0.,0.,0.));
#1649=CARTESIAN_POINT('Origin',(0.,0.,8.));
#1650=CARTESIAN_POINT('Origin',(0.,0.,34.));
#1651=CARTESIAN_POINT('Origin',(-8.99999991059303,-18.068290530991,11.0000002831221));
#1652=CARTESIAN_POINT('',(7.00000008940697,-18.068290530991,25.0000002980232));
#1653=CARTESIAN_POINT('',(-6.99999991059303,-18.068290530991,25.0000002980232));
#1654=CARTESIAN_POINT('',(-1.49999991059303,-18.068290530991,25.0000002980232));
#1655=CARTESIAN_POINT('',(7.00000008940697,-18.068290530991,11.0000002980232));
#1656=CARTESIAN_POINT('',(7.00000008940697,-18.068290530991,11.5000002905726));
#1657=CARTESIAN_POINT('',(-6.99999991059303,-18.068290530991,11.0000002980232));
#1658=CARTESIAN_POINT('',(-7.49999991059303,-18.068290530991,11.0000002980232));
#1659=CARTESIAN_POINT('',(-6.99999991059303,-18.068290530991,17.5000002905726));
#1660=CARTESIAN_POINT('Origin',(-8.99999991059304,-25.000000372529,9.00000028312206));
#1661=CARTESIAN_POINT('Origin',(-1.49999991059303,-17.068290530991,25.0000002980232));
#1662=CARTESIAN_POINT('',(-5.99999991059303,-17.068290530991,24.0000002980232));
#1663=CARTESIAN_POINT('',(6.00000008940697,-17.068290530991,24.0000002980232));
#1664=CARTESIAN_POINT('',(-1.49999991059303,-17.068290530991,24.0000002980232));
#1665=CARTESIAN_POINT('Origin',(7.00000008940697,-17.068290530991,25.0000002980232));
#1666=CARTESIAN_POINT('Origin',(-6.99999991059303,-17.068290530991,25.0000002980232));
#1667=CARTESIAN_POINT('Origin',(7.00000008940697,-17.068290530991,11.5000002905726));
#1668=CARTESIAN_POINT('',(6.00000008940697,-17.068290530991,12.0000002980232));
#1669=CARTESIAN_POINT('',(6.00000008940697,-17.068290530991,11.5000002905726));
#1670=CARTESIAN_POINT('Origin',(7.00000008940697,-17.068290530991,11.0000002980232));
#1671=CARTESIAN_POINT('Origin',(-6.99999991059303,-17.068290530991,17.5000002905726));
#1672=CARTESIAN_POINT('',(-5.99999991059303,-17.068290530991,12.0000002980232));
#1673=CARTESIAN_POINT('',(-5.99999991059303,-17.068290530991,17.5000002905726));
#1674=CARTESIAN_POINT('Origin',(-6.99999991059303,-17.068290530991,11.0000002980232));
#1675=CARTESIAN_POINT('Origin',(-7.49999991059303,-17.068290530991,11.0000002980232));
#1676=CARTESIAN_POINT('',(-7.49999991059303,-17.068290530991,12.0000002980232));
#1677=CARTESIAN_POINT('Origin',(6.00000008940697,-17.9999996228144,12.0000002980232));
#1678=CARTESIAN_POINT('',(6.00000008940697,-17.9999996228144,24.0000002980232));
#1679=CARTESIAN_POINT('',(6.00000008940697,-17.9999996228144,12.0000002980232));
#1680=CARTESIAN_POINT('Origin',(6.00000008940697,-17.9999996228144,24.0000002980232));
#1681=CARTESIAN_POINT('',(-5.99999991059303,-17.9999996228144,24.0000002980232));
#1682=CARTESIAN_POINT('Origin',(0.,0.,34.));
#1683=CARTESIAN_POINT('Origin',(0.,0.,38.));
#1684=CARTESIAN_POINT('Origin',(8.25000018440187,-13.9999996200647,0.));
#1685=CARTESIAN_POINT('',(9.99999985098839,-13.9999996200601,0.));
#1686=CARTESIAN_POINT('',(9.99999985098839,-13.9999996200601,0.));
#1687=CARTESIAN_POINT('',(4.12500009221947,-13.9999996200757,0.));
#1688=CARTESIAN_POINT('Origin',(9.99999985098839,-13.9999996200601,0.));
#1689=CARTESIAN_POINT('',(9.99999985098839,-7.51357902438846,0.));
#1690=CARTESIAN_POINT('',(9.99999985098839,-7.51357902438846,0.));
#1691=CARTESIAN_POINT('',(9.99999985098839,-6.99999981003006,0.));
#1692=CARTESIAN_POINT('Origin',(-17.7496030817856,12.2500000447035,0.));
#1693=CARTESIAN_POINT('',(-17.7496030817856,12.2500000447035,8.));
#1694=CARTESIAN_POINT('',(-17.7496030817856,11.6839244451112,8.));
#1695=CARTESIAN_POINT('',(-17.7496030817856,6.12500002235174,8.));
#1696=CARTESIAN_POINT('',(-17.7496030817856,12.2500000447035,31.));
#1697=CARTESIAN_POINT('',(-17.7496030817856,12.2500000447035,0.));
#1698=CARTESIAN_POINT('',(-17.7496030817856,-4.24999995529652,31.));
#1699=CARTESIAN_POINT('',(-17.7496030817856,12.2500000447035,31.));
#1700=CARTESIAN_POINT('',(-17.7496030817856,-4.24999995529652,0.));
#1701=CARTESIAN_POINT('',(-17.7496030817856,-4.24999995529652,0.));
#1702=CARTESIAN_POINT('',(-17.7496030817856,11.6839244451112,0.));
#1703=CARTESIAN_POINT('',(-17.7496030817856,6.12500002235174,0.));
#1704=CARTESIAN_POINT('',(-17.7496030817856,11.6839244451112,0.));
#1705=CARTESIAN_POINT('Origin',(-1.74980154089279,2.73097705986891,31.));
#1706=CARTESIAN_POINT('',(-11.6189500386223,-4.24999995529652,31.));
#1707=CARTESIAN_POINT('',(-14.25,4.00000004470348,31.));
#1708=CARTESIAN_POINT('Origin',(0.,4.00000004470348,31.));
#1709=CARTESIAN_POINT('',(-17.7496030817856,-4.24999995529652,31.));
#1710=CARTESIAN_POINT('',(-11.6189500386223,12.2500000447035,31.));
#1711=CARTESIAN_POINT('',(17.75,12.2500000447035,31.));
#1712=CARTESIAN_POINT('Origin',(0.,4.00000004470348,31.));
#1713=CARTESIAN_POINT('Origin',(-17.7496030817856,-4.24999995529652,0.));
#1714=CARTESIAN_POINT('',(-11.6189500386223,-4.24999995529652,26.));
#1715=CARTESIAN_POINT('',(-11.6189500386223,-4.24999995529652,0.));
#1716=CARTESIAN_POINT('',(-12.8257553383807,-4.24999995529652,26.));
#1717=CARTESIAN_POINT('',(-8.8748015408928,-4.24999995529652,26.));
#1718=CARTESIAN_POINT('',(-12.8257553383807,-4.24999995529652,0.));
#1719=CARTESIAN_POINT('',(-12.8257553383807,-4.24999995529652,0.));
#1720=CARTESIAN_POINT('',(-8.8748015408928,-4.24999995529652,0.));
#1721=CARTESIAN_POINT('Origin',(-7.64852927038918,12.2500000447035,0.));
#1722=CARTESIAN_POINT('',(-17.3637553226474,12.2500000447035,8.));
#1723=CARTESIAN_POINT('',(-3.82426463519459,12.2500000447035,8.));
#1724=CARTESIAN_POINT('',(-17.3637553226474,12.2500000447035,0.));
#1725=CARTESIAN_POINT('',(-17.3637553226474,12.2500000447035,0.));
#1726=CARTESIAN_POINT('',(-12.8257553383807,12.2500000447035,0.));
#1727=CARTESIAN_POINT('',(-3.82426463519459,12.2500000447035,0.));
#1728=CARTESIAN_POINT('',(-12.8257553383807,12.2500000447035,26.));
#1729=CARTESIAN_POINT('',(-12.8257553383807,12.2500000447035,0.));
#1730=CARTESIAN_POINT('',(-11.6189500386223,12.2500000447035,26.));
#1731=CARTESIAN_POINT('',(-3.82426463519459,12.2500000447035,26.));
#1732=CARTESIAN_POINT('',(-11.6189500386223,12.2500000447035,0.));
#1733=CARTESIAN_POINT('Origin',(17.75,12.2500000447035,0.));
#1734=CARTESIAN_POINT('',(17.75,12.2500000447035,8.));
#1735=CARTESIAN_POINT('',(17.3637553226474,12.2500000447035,8.));
#1736=CARTESIAN_POINT('',(8.875,12.2500000447035,8.));
#1737=CARTESIAN_POINT('',(17.75,12.2500000447035,31.));
#1738=CARTESIAN_POINT('',(17.75,12.2500000447035,0.));
#1739=CARTESIAN_POINT('',(11.6189500386223,12.2500000447035,31.));
#1740=CARTESIAN_POINT('',(17.75,12.2500000447035,31.));
#1741=CARTESIAN_POINT('',(11.6189500386223,12.2500000447035,26.));
#1742=CARTESIAN_POINT('',(11.6189500386223,12.2500000447035,0.));
#1743=CARTESIAN_POINT('',(12.8257553383807,12.2500000447035,26.));
#1744=CARTESIAN_POINT('',(8.875,12.2500000447035,26.));
#1745=CARTESIAN_POINT('',(12.8257553383807,12.2500000447035,0.));
#1746=CARTESIAN_POINT('',(12.8257553383807,12.2500000447035,0.));
#1747=CARTESIAN_POINT('',(17.3637553226474,12.2500000447035,0.));
#1748=CARTESIAN_POINT('',(8.875,12.2500000447035,0.));
#1749=CARTESIAN_POINT('',(17.3637553226474,12.2500000447035,0.));
#1750=CARTESIAN_POINT('Origin',(3.25,4.00000004470348,31.));
#1751=CARTESIAN_POINT('',(11.6189500386223,-4.24999995529652,31.));
#1752=CARTESIAN_POINT('Origin',(0.,4.00000004470348,31.));
#1753=CARTESIAN_POINT('',(17.75,-4.24999995529652,31.));
#1754=CARTESIAN_POINT('',(17.75,-4.24999995529652,31.));
#1755=CARTESIAN_POINT('',(-17.7496030817856,-4.24999995529652,31.));
#1756=CARTESIAN_POINT('Origin',(7.64852927038918,-4.24999995529652,0.));
#1757=CARTESIAN_POINT('',(11.6189500386223,-4.24999995529652,26.));
#1758=CARTESIAN_POINT('',(11.6189500386223,-4.24999995529652,0.));
#1759=CARTESIAN_POINT('',(17.75,-4.24999995529652,0.));
#1760=CARTESIAN_POINT('',(17.75,-4.24999995529652,0.));
#1761=CARTESIAN_POINT('',(12.8257553383807,-4.24999995529652,0.));
#1762=CARTESIAN_POINT('',(3.82426463519459,-4.24999995529652,0.));
#1763=CARTESIAN_POINT('',(12.8257553383807,-4.24999995529652,26.));
#1764=CARTESIAN_POINT('',(12.8257553383807,-4.24999995529652,0.));
#1765=CARTESIAN_POINT('',(3.82426463519459,-4.24999995529652,26.));
#1766=CARTESIAN_POINT('Origin',(17.75,-4.24999995529652,0.));
#1767=CARTESIAN_POINT('',(17.75,11.6833214455479,8.));
#1768=CARTESIAN_POINT('',(17.75,-2.12499997764826,8.));
#1769=CARTESIAN_POINT('',(17.75,11.6833214455479,0.));
#1770=CARTESIAN_POINT('',(17.75,11.6833214455479,0.));
#1771=CARTESIAN_POINT('',(17.75,-2.12499997764826,0.));
#1772=CARTESIAN_POINT('Origin',(0.,0.,0.));
#1773=CARTESIAN_POINT('Origin',(0.,0.,8.));
#1774=CARTESIAN_POINT('Origin',(0.,0.,0.));
#1775=CARTESIAN_POINT('Origin',(0.,0.,0.));
#1776=CARTESIAN_POINT('Origin',(0.,0.,0.));
#1777=CARTESIAN_POINT('Origin',(0.,0.,8.));
#1778=CARTESIAN_POINT('Origin',(0.,4.00000004470348,0.));
#1779=CARTESIAN_POINT('',(-14.25,4.00000004470348,35.));
#1780=CARTESIAN_POINT('',(-14.25,4.00000004470348,0.));
#1781=CARTESIAN_POINT('Origin',(0.,4.00000004470348,35.));
#1782=CARTESIAN_POINT('Origin',(0.,4.00000004470348,26.));
#1783=CARTESIAN_POINT('Origin',(0.,4.00000004470348,26.));
#1784=CARTESIAN_POINT('Origin',(0.,0.,0.));
#1785=CARTESIAN_POINT('Origin',(0.,4.00000004470348,0.));
#1786=CARTESIAN_POINT('Origin',(0.,0.,0.));
#1787=CARTESIAN_POINT('Origin',(0.,4.00000004470348,0.));
#1788=CARTESIAN_POINT('',(-8.24999981559813,-16.9999996200204,0.));
#1789=CARTESIAN_POINT('',(-8.24999981559813,-6.99999981005422,0.));
#1790=CARTESIAN_POINT('',(-4.12499992758967,-16.9999996296247,0.));
#1791=CARTESIAN_POINT('Origin',(0.,4.00000004470348,0.));
#1792=CARTESIAN_POINT('',(-17.529517073118,-9.63804592496566,0.));
#1793=CARTESIAN_POINT('Origin',(-14.379517073118,-9.63804592496566,0.));
#1794=CARTESIAN_POINT('Origin',(0.,4.00000004470348,26.));
#1795=CARTESIAN_POINT('Origin',(0.,4.00000004470348,26.));
#1796=CARTESIAN_POINT('Origin',(0.,4.00000004470348,0.));
#1797=CARTESIAN_POINT('Origin',(0.,4.00000004470348,0.));
#1798=CARTESIAN_POINT('Origin',(0.,4.00000004470348,26.));
#1799=CARTESIAN_POINT('Origin',(0.,4.00000004470348,26.));
#1800=CARTESIAN_POINT('Origin',(0.,4.00000004470348,35.));
#1801=CARTESIAN_POINT('',(-11.25,4.00000004470348,35.));
#1802=CARTESIAN_POINT('Origin',(0.,4.00000004470348,35.));
#1803=CARTESIAN_POINT('Origin',(0.,4.00000004470348,0.));
#1804=CARTESIAN_POINT('',(-11.25,4.00000004470348,38.));
#1805=CARTESIAN_POINT('',(-11.25,4.00000004470348,0.));
#1806=CARTESIAN_POINT('Origin',(0.,4.00000004470348,38.));
#1807=CARTESIAN_POINT('Origin',(-14.379517073118,-9.63804592496566,0.));
#1808=CARTESIAN_POINT('',(-17.529517073118,-9.63804592496566,38.));
#1809=CARTESIAN_POINT('',(-17.529517073118,-9.63804592496566,0.));
#1810=CARTESIAN_POINT('Origin',(-14.379517073118,-9.63804592496566,38.));
#1811=CARTESIAN_POINT('Origin',(-5.99999991059303,-17.9999996228144,12.0000002980232));
#1812=CARTESIAN_POINT('',(-5.99999991059303,-17.9999996228144,12.0000002980232));
#1813=CARTESIAN_POINT('Origin',(0.,0.,38.));
#1814=CARTESIAN_POINT('Origin',(-5.99999991059303,-17.9999996228144,24.0000002980232));
#1815=CARTESIAN_POINT('Origin',(8.25000018440187,-13.9999996200647,0.));
#1816=CARTESIAN_POINT('',(-8.24999981559813,-13.9999996201084,0.));
#1817=CARTESIAN_POINT('Origin',(-8.24999981559813,-16.9999996200204,0.));
#1818=CARTESIAN_POINT('',(-8.24999981559813,-16.9999996200204,0.));
#1819=CARTESIAN_POINT('Origin',(-8.24999981559813,-13.9999996201084,0.));
#1820=CARTESIAN_POINT('Origin',(0.,0.,8.));
#1821=UNCERTAINTY_MEASURE_WITH_UNIT(LENGTH_MEASURE(0.01),#1825,
'DISTANCE_ACCURACY_VALUE',
'Maximum model space distance between geometric entities at asserted c
onnectivities');
#1822=UNCERTAINTY_MEASURE_WITH_UNIT(LENGTH_MEASURE(0.01),#1825,
'DISTANCE_ACCURACY_VALUE',
'Maximum model space distance between geometric entities at asserted c
onnectivities');
#1823=(
GEOMETRIC_REPRESENTATION_CONTEXT(3)
GLOBAL_UNCERTAINTY_ASSIGNED_CONTEXT((#1821))
GLOBAL_UNIT_ASSIGNED_CONTEXT((#1825,#1827,#1828))
REPRESENTATION_CONTEXT('','3D')
);
#1824=(
GEOMETRIC_REPRESENTATION_CONTEXT(3)
GLOBAL_UNCERTAINTY_ASSIGNED_CONTEXT((#1822))
GLOBAL_UNIT_ASSIGNED_CONTEXT((#1825,#1827,#1828))
REPRESENTATION_CONTEXT('','3D')
);
#1825=(
LENGTH_UNIT()
NAMED_UNIT(*)
SI_UNIT(.MILLI.,.METRE.)
);
#1826=(
LENGTH_UNIT()
NAMED_UNIT(*)
SI_UNIT($,.METRE.)
);
#1827=(
NAMED_UNIT(*)
PLANE_ANGLE_UNIT()
SI_UNIT($,.RADIAN.)
);
#1828=(
NAMED_UNIT(*)
SI_UNIT($,.STERADIAN.)
SOLID_ANGLE_UNIT()
);
#1829=SHAPE_DEFINITION_REPRESENTATION(#1830,#1831);
#1830=PRODUCT_DEFINITION_SHAPE('',$,#1833);
#1831=SHAPE_REPRESENTATION('',(#1005),#1823);
#1832=PRODUCT_DEFINITION_CONTEXT('part definition',#1837,'design');
#1833=PRODUCT_DEFINITION('OpenTholoMetriV1','OpenTholoMetriV1 v11',#1834,
#1832);
#1834=PRODUCT_DEFINITION_FORMATION('',$,#1839);
#1835=PRODUCT_RELATED_PRODUCT_CATEGORY('OpenTholoMetriV1 v11',
'OpenTholoMetriV1 v11',(#1839));
#1836=APPLICATION_PROTOCOL_DEFINITION('international standard',
'automotive_design',2009,#1837);
#1837=APPLICATION_CONTEXT(
'Core Data for Automotive Mechanical Design Process');
#1838=PRODUCT_CONTEXT('part definition',#1837,'mechanical');
#1839=PRODUCT('OpenTholoMetriV1','OpenTholoMetriV1 v11',$,(#1838));
#1840=PRESENTATION_STYLE_ASSIGNMENT((#1841));
#1841=SURFACE_STYLE_USAGE(.BOTH.,#1842);
#1842=SURFACE_SIDE_STYLE('',(#1843));
#1843=SURFACE_STYLE_FILL_AREA(#1844);
#1844=FILL_AREA_STYLE('Steel - Satin',(#1845));
#1845=FILL_AREA_STYLE_COLOUR('Steel - Satin',#1846);
#1846=COLOUR_RGB('Steel - Satin',0.627450980392157,0.627450980392157,0.627450980392157);
ENDSEC;
END-ISO-10303-21;
